<svg width="170" height="482" viewBox="0 0 170 482" fill="none" xmlns="http://www.w3.org/2000/svg">
<path fill-rule="evenodd" clip-rule="evenodd" d="M7.64003 247.811C3.53216 255.529 1.43153 263.76 1.33039 272.497C1.36151 323.052 1.4393 373.599 1.57157 424.154C1.78941 428.246 2.38849 432.276 3.38433 436.252C3.06535 436.252 2.75415 436.189 2.4585 436.073C2.19398 435.279 1.80497 434.579 1.28371 433.957C0.941384 433.326 0.591276 432.681 0.233393 432.027C0.536815 430.572 0.490133 429.133 0.0855694 427.709C0.451233 427.46 0.622397 427.102 0.599057 426.659C0.466796 378.633 0.342314 330.606 0.210053 282.58C0.178933 276.846 0.295627 271.12 0.56793 265.401C0.513469 264.927 0.318983 264.522 0 264.18C1.85166 258.664 2.91751 251.919 6.98649 247.499C7.25101 247.515 7.46109 247.616 7.64003 247.811Z" fill="#F4E3CC"/>
<path fill-rule="evenodd" clip-rule="evenodd" d="M75.7717 230.819C77.6623 233.666 80.253 235.51 83.5518 236.343C83.3806 236.887 82.9994 237.168 82.4081 237.191C79.8329 237.23 77.2499 237.168 74.6747 237.012C72.3096 236.148 71.376 235.643 71.6638 232.772C72.7764 231.581 74.1457 230.936 75.7717 230.819Z" fill="#BCB6AD" stroke="#BCB6AD" stroke-width="0.5"/>
<path fill-rule="evenodd" clip-rule="evenodd" d="M73.5844 229.761C74.5102 229.73 75.2338 230.088 75.7706 230.819C74.1446 230.936 72.7753 231.581 71.6627 232.772C71.3749 235.643 72.3085 236.148 74.6736 237.012C77.2488 237.168 79.8318 237.23 82.407 237.191C82.9983 237.168 83.3795 236.888 83.5507 236.343C85.0911 236.67 86.6472 236.709 88.2032 236.467C88.2421 237.105 88.5844 237.409 89.2379 237.385C91.074 236.989 95.0185 237.479 96.5123 236.483C97.1502 236.071 97.7337 235.604 98.2628 235.083C98.6207 233.153 97.5626 232.328 97.4459 230.632C97.7571 230.648 98.0605 230.656 98.3639 230.671C100.947 233.067 100.332 236.514 97.0724 237.813C95.3297 238.125 93.5714 238.319 91.8053 238.397C91.2218 237.899 90.6383 237.899 90.047 238.397C85.6746 238.257 81.3022 238.195 76.9221 238.202C73.5611 238.218 70.5658 237.533 70.4102 233.612C70.8147 231.807 71.8728 230.516 73.5844 229.761Z" fill="#CDB095"/>
<path fill-rule="evenodd" clip-rule="evenodd" d="M90.5992 227.754C90.4203 228.353 90.537 228.866 90.9415 229.302C91.8907 229.675 92.7387 230.22 93.4779 230.928C90.9026 235.969 84.1418 235.347 80.1662 232.352C79.536 231.846 78.9525 230.554 80.0806 230.197C81.6521 230.189 85.8145 230.344 87.0204 230.072C88.3275 229.457 89.5178 228.679 90.5992 227.754Z" fill="#979996" stroke="#979996" stroke-width="0.5"/>
<path fill-rule="evenodd" clip-rule="evenodd" d="M86.9823 227.73C86.2198 228.571 85.2629 228.983 84.1037 228.975C80.5871 229.271 77.0705 229.473 73.5539 229.582C73.5617 229.636 73.5772 229.699 73.585 229.761C71.8734 230.516 70.8153 231.807 70.4108 233.612C70.5664 237.533 73.5617 238.218 76.9227 238.202C81.3028 238.194 85.6752 238.257 90.0476 238.397C90.6389 237.899 91.2224 237.899 91.8059 238.397C93.572 238.319 95.3303 238.124 97.073 237.813C100.333 236.514 100.948 233.067 98.3645 230.671C97.8977 229.426 98.2245 228.477 99.3448 227.831C105.756 233.915 101.998 240.661 93.5565 240.599C87.1768 239.603 69.5394 244.115 67.9989 235.059C66.9019 224.712 79.1089 227.559 85.5274 226.906C86.2121 226.851 86.6944 227.123 86.9823 227.73Z" fill="#9A5515"/>
<path fill-rule="evenodd" clip-rule="evenodd" d="M27.5046 227.435C27.3568 227.536 27.209 227.629 27.0612 227.73C23.9102 229.784 20.946 232.072 18.1608 234.592C14.3408 238.093 11.0809 242.053 8.38122 246.48C8.1556 246.13 8.08558 245.749 8.16338 245.337C11.9134 237.261 18.4642 231.869 25.8942 227.271C26.4543 227.03 26.9912 227.085 27.5046 227.435Z" fill="#FAEDD7"/>
<path fill-rule="evenodd" clip-rule="evenodd" d="M91.2979 217.663C91.1812 221.584 89.7419 224.937 86.98 227.73C86.6921 227.123 86.2097 226.851 85.5251 226.906C79.1065 227.559 66.8996 224.712 67.9966 235.059C69.5371 244.115 87.1745 239.603 93.5541 240.599C101.996 240.661 105.753 233.915 99.3425 227.831C98.9768 224.867 100.976 222.308 100.79 219.196C128.347 223.335 159.98 237.191 162.61 268.856C163.03 320.305 162.75 372.424 162.579 423.944C160.844 460.44 121.726 474.18 90.6522 475.603C58.7772 476.918 13.1627 465.551 8.23011 427.974C7.36652 380.897 8.06673 332.909 7.79443 285.723C6.05169 253.303 15.4267 238.537 45.0687 225.567C60.3877 219.616 75.022 218.161 91.2979 217.663ZM137.247 443.3C143.65 437.481 145.743 431.91 146.42 423.43C146.389 372.86 146.389 322.289 146.412 271.719C146.49 269.999 146.303 268.311 145.844 266.654C141.394 252.588 131.264 251.203 118.147 251.88C92.496 251.919 66.8529 251.942 41.202 251.95C32.2705 253.016 25.2607 259.59 24.4749 268.692C24.2026 320.515 24.187 372.338 24.436 424.161C24.3115 443.479 47.216 453.601 63.1496 456.97C87.9058 461.49 116.91 459.685 137.247 443.3Z" fill="#CA7319" stroke="#CA7319" stroke-width="0.5"/>
<path fill-rule="evenodd" clip-rule="evenodd" d="M145.85 266.654C146.309 268.311 146.496 269.999 146.418 271.719C146.395 322.289 146.395 372.86 146.426 423.43C145.749 431.91 143.656 437.481 137.253 443.3C136.74 443.207 136.39 442.919 136.203 442.429C136.896 441.13 137.853 440.072 139.074 439.255C139.377 437.87 140.171 436.843 141.439 436.19C141.743 433.793 143.54 432.385 143.516 429.895C143.89 429.211 144.302 428.557 144.746 427.935C144.644 425.655 144.536 423.376 144.411 421.096C144.52 414.615 144.621 408.127 144.722 401.646C144.73 375.715 144.644 349.776 144.466 323.845C144.582 305.313 144.66 286.781 144.699 268.249C144.567 267.315 144.948 266.778 145.85 266.654Z" fill="#A8560C"/>
<path fill-rule="evenodd" clip-rule="evenodd" d="M144.694 268.249C144.655 286.781 144.577 305.313 144.461 323.845C144.639 349.776 144.725 375.715 144.717 401.646C144.616 408.127 144.515 414.615 144.406 421.096C144.531 423.376 144.639 425.655 144.741 427.935C144.297 428.557 143.885 429.211 143.511 429.895C143.535 432.385 141.737 433.793 141.434 436.19C140.166 436.843 139.372 437.87 139.069 439.255C137.847 440.072 136.891 441.13 136.198 442.429C135.506 441.884 135.42 443.285 134.914 443.588C132.977 444.818 130.993 445.992 128.978 447.105C127.57 448.723 126.185 449.136 124.279 449.991C123.68 449.906 123.4 449.556 123.423 448.941C132.829 444.67 142.251 436.789 143.364 425.764C143.441 374.672 143.48 323.589 143.48 272.497C143.519 270.49 143.309 268.513 142.866 266.561C143.224 266.187 143.535 265.767 143.791 265.316C144.165 265.938 143.574 268.303 144.694 268.249Z" fill="#925A27"/>
<path fill-rule="evenodd" clip-rule="evenodd" d="M142.867 266.561C143.31 268.513 143.52 270.49 143.481 272.497C143.481 323.588 143.442 374.672 143.364 425.764C142.252 436.789 132.83 444.67 123.424 448.941C98.4034 459.771 68.4035 459.405 43.8652 447.408C34.2801 442.141 26.6868 434.26 26.7957 422.652C26.7723 371.568 26.8112 320.484 26.9046 269.4C28.0716 260.08 34.8558 254.315 44.2464 254.463C70.4419 254.439 96.6296 254.424 122.825 254.424C132.153 253.871 140.182 256.921 142.867 266.561ZM27.5892 276.776C27.6748 324.102 27.6748 371.436 27.597 418.762C27.5892 422.411 27.8071 427.196 30.3201 430.051C30.0866 430.456 29.791 430.837 29.4176 431.195C31.0436 433.731 32.6229 436.283 34.1556 438.858C34.7625 438.811 35.2915 438.57 35.7428 438.134C37.5477 441.13 39.9751 443.503 43.0249 445.253C56.9901 452.722 71.889 456.169 87.7292 455.593C94.0466 455.258 100.317 454.535 106.549 453.414C111.466 451.944 116.313 450.248 121.082 448.35C124.576 447.066 127.353 444.351 130.496 442.437C130.877 442.266 131.274 442.126 131.679 442.025C132.947 440.935 134.184 439.776 135.382 438.555C137.296 436.446 138.86 434.112 140.089 431.545C141.723 426.643 142.548 421.602 142.563 416.428C142.369 369.748 142.376 323.067 142.586 276.379C142.586 274.029 142.337 271.711 141.824 269.424C141.023 266.599 140.128 263.806 139.14 261.045C138.572 260.834 137.965 260.718 137.335 260.687C137.117 260.173 136.806 259.737 136.401 259.372C132.301 256.641 127.781 255.381 122.841 255.606C95.5715 255.738 68.3024 255.754 41.041 255.668C40.582 255.598 40.2007 255.731 39.8895 256.057C39.5161 257.193 38.7692 258.01 37.6644 258.508C36.443 258.788 35.2137 258.804 33.9845 258.547C33.471 259.286 34.1089 259.348 34.2568 260.088C33.541 260.228 32.8797 260.5 32.2884 260.92C32.1639 261.612 32.0783 262.305 32.0472 263.013C31.6193 263.075 31.1914 263.176 30.7635 263.301C28.0638 267.113 27.3714 272.193 27.5892 276.776Z" fill="#EAEAEA"/>
<path d="M27.5892 276.776C27.6748 324.102 27.6748 371.436 27.597 418.762C27.5892 422.411 27.8071 427.196 30.3201 430.051C30.0866 430.456 29.791 430.837 29.4176 431.195C31.0436 433.731 32.6229 436.283 34.1556 438.858C34.7625 438.811 35.2915 438.57 35.7428 438.134C37.5477 441.13 39.9751 443.503 43.0249 445.253C56.9901 452.722 71.889 456.169 87.7292 455.593C94.0466 455.258 100.317 454.535 106.549 453.414C111.466 451.944 116.313 450.248 121.082 448.35C124.576 447.066 127.353 444.351 130.496 442.437C130.877 442.266 131.274 442.126 131.679 442.025C132.947 440.935 134.184 439.776 135.382 438.555C137.296 436.446 138.86 434.112 140.089 431.545C141.723 426.643 142.548 421.602 142.563 416.428C142.369 369.748 142.376 323.067 142.586 276.379C142.586 274.029 142.337 271.711 141.824 269.424C141.023 266.599 140.128 263.806 139.14 261.045C138.572 260.834 137.965 260.718 137.335 260.687C137.117 260.173 136.806 259.737 136.401 259.372C132.301 256.641 127.781 255.381 122.841 255.606C95.5715 255.738 68.3024 255.754 41.041 255.668C40.582 255.598 40.2007 255.731 39.8895 256.057C39.5161 257.193 38.7692 258.01 37.6644 258.508C36.443 258.788 35.2137 258.804 33.9845 258.547C33.471 259.286 34.1089 259.348 34.2568 260.088C33.541 260.228 32.8797 260.5 32.2884 260.92C32.1639 261.612 32.0783 262.305 32.0472 263.013C31.6193 263.075 31.1914 263.176 30.7635 263.301C28.0638 267.113 27.3714 272.193 27.5892 276.776Z" fill="#EAEAEA"/>
<path fill-rule="evenodd" clip-rule="evenodd" d="M145.846 266.654C144.944 266.778 144.563 267.315 144.695 268.249C143.574 268.303 144.166 265.938 143.792 265.316C143.536 265.767 143.224 266.187 142.866 266.561C140.182 256.921 132.153 253.871 122.825 254.424C96.6295 254.424 70.4418 254.439 44.2463 254.463C34.8558 254.315 28.0716 260.08 26.9045 269.4C26.8112 320.484 26.7723 371.568 26.7956 422.652C26.6867 434.26 34.2801 442.141 43.8651 447.408C68.4035 459.405 98.4034 459.771 123.424 448.941C123.401 449.556 123.681 449.906 124.28 449.991C126.186 449.136 127.571 448.723 128.979 447.105C130.994 445.992 132.978 444.818 134.915 443.588C135.421 443.285 135.507 441.885 136.199 442.429C136.386 442.919 136.736 443.207 137.249 443.3C116.912 459.685 87.9081 461.49 63.1519 456.97C47.2183 453.601 24.3138 443.479 24.4383 424.162C24.1893 372.338 24.2049 320.515 24.4772 268.692C25.263 259.59 32.2728 253.016 41.2043 251.95C66.8552 251.942 92.4983 251.919 118.149 251.88C131.266 251.203 141.396 252.588 145.846 266.654Z" fill="#9A5617"/>
<path fill-rule="evenodd" clip-rule="evenodd" d="M100.244 209.198C100.602 210.42 100.408 212.225 101.427 213.096C100.532 214.24 100.937 217.725 100.797 219.196C100.983 222.308 98.9839 224.867 99.3495 227.832C98.2292 228.477 97.9024 229.426 98.3692 230.671C98.0658 230.656 97.7624 230.648 97.4512 230.632C95.8251 232.033 94.168 233.41 92.4953 234.771C91.1804 235.635 89.7567 236.203 88.2085 236.467C86.6524 236.709 85.0964 236.67 83.556 236.343C80.2572 235.51 77.6665 233.667 75.7759 230.819C75.2391 230.088 74.5155 229.73 73.5897 229.761C73.5819 229.699 73.5664 229.636 73.5586 229.582C77.0752 229.473 80.5918 229.271 84.1084 228.975C85.2676 228.983 86.2245 228.571 86.987 227.73C89.7489 224.937 91.1882 221.584 91.3049 217.663C91.515 215.858 91.4683 214.061 91.1727 212.271C91.2971 211.976 91.4216 211.672 91.5383 211.377C92.2774 211.633 92.2307 210.427 92.6275 210.046C92.8998 210.91 92.4564 212.746 93.7401 212.995C93.67 218.41 93.7167 223.07 90.6047 227.754C89.5233 228.68 88.3329 229.458 87.0259 230.072C85.82 230.344 81.6576 230.189 80.0861 230.197C78.9579 230.555 79.5415 231.846 80.1717 232.352C84.1473 235.347 90.9081 235.969 93.4833 230.928C98.2447 226.275 99.6763 217.002 98.5093 210.653C99.2406 210.241 99.2406 209.105 100.244 209.198Z" fill="#80776C"/>
<path fill-rule="evenodd" clip-rule="evenodd" d="M98.6319 183.415C99.6589 185.282 97.5972 198.633 95.1542 197.069C94.6018 195.988 92.758 195.171 92.7735 193.941C93.2948 191.926 93.6293 189.872 93.7694 187.78C93.9016 187.305 94.1584 186.908 94.5318 186.582C96.8581 184.979 98.3207 187.196 98.6319 183.415Z" fill="#959696" stroke="#959696" stroke-width="0.5"/>
<path fill-rule="evenodd" clip-rule="evenodd" d="M72.612 181.805C73.4289 183.034 74.9461 182.777 76.1053 183.415C76.1987 186.099 76.4321 188.775 76.8055 191.444C77.2567 194.004 78.2604 196.322 79.8086 198.407C78.6727 198.975 77.7235 199.761 76.9455 200.749C76.541 200.523 76.1987 200.228 75.903 199.862C74.8916 198.975 74.1681 197.894 73.7479 196.61C72.0752 193.747 70.3558 184.333 72.612 181.805Z" fill="#B4B7B4" stroke="#B4B7B4" stroke-width="0.5"/>
<path fill-rule="evenodd" clip-rule="evenodd" d="M72.0309 157.632C72.9412 157.819 75.2908 157.998 75.6876 158.986C75.7809 160.915 75.9521 162.821 76.2244 164.727C77.3525 169.59 78.8152 173.387 82.8375 176.553C82.9697 176.895 83.1175 177.238 83.2887 177.572C82.7986 178.49 82.9075 179.331 83.6155 180.109C80.2545 180.583 76.8779 177.487 75.2363 174.826C71.9376 169.52 70.8717 163.786 72.0309 157.632Z" fill="#B9BBB8" stroke="#B9BBB8" stroke-width="0.5"/>
<path fill-rule="evenodd" clip-rule="evenodd" d="M98.4959 132.813C99.873 135.342 98.4648 144.421 96.6676 147.121C96.4342 147.393 96.1541 147.456 95.8273 147.315C94.9871 146.335 93.2366 145.192 92.8242 144.11C93.2054 141.698 93.7267 139.31 94.3958 136.96C95.6017 136.408 97.5078 137.334 98.3792 136.299C98.5892 135.147 98.6282 133.988 98.4959 132.813Z" fill="#919595" stroke="#919595" stroke-width="0.5"/>
<path fill-rule="evenodd" clip-rule="evenodd" d="M81.3484 125.181C83.4335 127.383 86.5144 125.555 88.8951 127.694C90.241 130.697 83.8691 130.666 82.3676 130.479C81.8463 130.503 81.4962 130.277 81.3328 129.795C82.1186 129.709 82.8966 130.122 83.3479 129.258C82.7488 127.858 82.0875 126.496 81.3484 125.181ZM79.8079 198.407C80.5004 199.675 92.5984 203.13 87.9226 205.332C84.3048 206.965 76.8982 203.83 75.9023 199.862C76.198 200.228 76.5403 200.523 76.9449 200.749C77.7229 199.761 78.672 198.975 79.8079 198.407Z" fill="#999D9B" stroke="#999D9B" stroke-width="0.5"/>
<path fill-rule="evenodd" clip-rule="evenodd" d="M74.5487 123.477C75.9414 126.543 78.2054 128.651 81.3329 129.795C81.4963 130.277 81.8464 130.503 82.3677 130.479C83.8692 130.666 90.2411 130.697 88.8952 127.694C89.8677 127.406 90.7157 130.479 91.1514 131.133C89.8988 132.004 88.5295 132.572 87.0357 132.852C84.6317 132.915 82.2743 132.58 79.9714 131.857C77.7852 131.779 78.9211 140.811 79.2012 142.305C79.3568 142.64 79.6213 142.803 79.9792 142.803C82.1498 141.978 84.3749 141.768 86.6623 142.173C87.9382 142.243 89.1908 142.469 90.4123 142.834C90.1166 143.604 89.9221 144.406 89.8288 145.23C87.3314 143.55 84.7795 143.48 82.1965 145.02C80.9906 145.931 81.0762 146.74 82.4455 147.448C91.0736 147.728 94.5824 157.764 93.6566 165.14C93.7344 166.509 92.5829 167.59 93.0808 168.913C93.9366 169.831 94.8469 170.71 95.7961 171.558C95.9595 171.582 96.1228 171.605 96.294 171.62C96.6597 171.146 97.0642 170.733 97.5077 170.399C97.2899 171.574 97.5699 172.601 98.3557 173.457C97.7956 175.938 99.5227 178.685 100.06 181.081C100.254 181.89 100.41 182.699 100.534 183.516C101.693 189.694 99.6472 195.038 98.0056 200.803C98.807 203.581 99.5461 206.382 100.239 209.198C99.2349 209.105 99.2349 210.241 98.5035 210.653C97.072 203.332 91.945 191.965 82.57 195.365C82.1654 195.715 82.1265 196.12 82.461 196.571C89.5642 199.092 93.2675 205.689 93.7344 212.995C92.4506 212.746 92.8941 210.91 92.6218 210.046C92.225 210.427 92.2717 211.633 91.5326 211.377C91.3148 210.497 90.8557 207.455 89.9844 207.035C86.9268 207.969 83.8537 207.992 80.765 207.121C79.5591 206.856 78.9756 211.104 78.7655 211.89C78.0497 212.085 77.3106 212.193 76.5715 212.225C75.9958 210.272 78.4932 206.911 77.8941 205.806C76.7816 204.849 75.6768 203.915 74.5798 203.005C74.4242 203.06 74.2686 203.122 74.113 203.184C72.876 206.071 72.0669 209.081 71.6701 212.209C71.1799 212.458 70.682 212.466 70.1841 212.217C69.1338 207.611 73.2572 203.48 72.5103 199.847C73.8641 199.317 72.9849 197.645 73.7474 196.61C74.1675 197.894 74.891 198.975 75.9024 199.862C76.8983 203.83 84.3049 206.965 87.9227 205.331C92.5985 203.13 80.5005 199.675 79.808 198.407C78.2598 196.322 77.2562 194.004 76.8049 191.444C76.4315 188.775 76.1981 186.099 76.1047 183.415C74.9455 182.777 73.4284 183.034 72.6115 181.805C72.1291 178.856 73.2105 176.779 75.2333 174.826C76.8749 177.487 80.2515 180.583 83.6125 180.108C84.8962 180.357 86.1799 180.319 87.4559 179.992C89.0508 179.268 89.1441 178.389 87.7359 177.362C86.0943 177.137 84.4605 176.864 82.8345 176.553C78.8122 173.387 77.3495 169.59 76.2214 164.727C76.4004 164.369 76.5171 163.996 76.5715 163.599C76.377 160.938 76.5404 158.293 77.0461 155.679C76.9139 154.481 74.5098 152.808 73.5217 152.139C73.724 151.758 73.8718 151.369 73.973 150.957C73.794 149.556 73.6696 148.179 73.6151 146.81C75.3189 151.244 78.3999 154.24 82.8578 155.796C84.5772 156.333 86.2422 156.2 87.8682 155.422C89.1286 154.364 89.113 153.337 87.8215 152.318C86.8101 152.092 85.7831 151.945 84.7406 151.875C79.2479 150.583 77.2095 143.931 76.2603 139.092C77.2095 136.384 75.9102 133.07 77.1473 130.075C76.2992 129.196 75.4045 128.332 74.4787 127.484C74.1675 127.258 73.8252 127.173 73.4517 127.212C73.833 125.99 74.1986 124.746 74.5487 123.477ZM87.4403 167.077C88.335 167.108 89.2141 167.264 90.0699 167.536C91.5871 166.875 91.4548 162.222 91.5404 160.837C91.4004 159.958 91.6104 157.671 90.7701 157.188C89.2842 157.741 87.7437 158.091 86.1488 158.239C84.0482 158.169 82.0098 157.803 80.0181 157.142C77.863 156.683 78.8044 165.319 79.0534 166.61C79.1 166.991 79.2634 167.318 79.5357 167.59C80.9673 167.287 82.4299 167.061 83.9237 166.906C85.0985 166.945 86.2655 167.007 87.4403 167.077ZM94.5279 186.582C94.1545 186.908 93.8977 187.305 93.7655 187.78C93.6254 189.872 93.2909 191.926 92.7696 193.941C92.7541 195.171 94.5979 195.988 95.1503 197.069C97.5933 198.633 99.655 185.282 98.628 183.415C97.251 176.102 90.5679 165.77 81.9165 169.761C79.4891 172.251 89.4086 173.145 90.3189 176.211C92.3573 179.4 93.7577 182.863 94.5279 186.582ZM88.1561 192.681C88.8952 192.922 89.6265 193 90.3423 192.899C91.0814 191.592 91.4781 190.184 91.5326 188.674C91.8127 187.437 91.8594 186.169 91.6493 184.87C91.447 184.061 91.6337 182.481 90.8013 182.022C89.2919 182.474 87.7515 182.8 86.1799 183.003C84.0715 182.948 81.9942 182.621 79.9559 182.038C79.5824 181.976 79.3101 182.116 79.139 182.45C78.8744 186.107 78.3687 189.647 79.6213 193.171C79.9403 193.389 80.2748 193.444 80.6405 193.335C83.099 192.627 85.6042 192.409 88.1561 192.681Z" fill="#7C7E7C"/>
<path fill-rule="evenodd" clip-rule="evenodd" d="M98.4958 132.813C98.6281 133.988 98.5892 135.148 98.3791 136.299C97.5077 137.334 95.6016 136.408 94.3957 136.96C93.3143 131.825 92.5674 126.675 87.666 123.757C86.6312 122.754 81.1307 122.373 81.7298 120.404C89.7121 114.546 97.6011 125.594 98.4958 132.813ZM98.6281 183.415C98.3169 187.196 96.8542 184.979 94.528 186.582C93.7578 182.863 92.3573 179.401 90.319 176.211C89.4087 173.145 79.4891 172.251 81.9165 169.761C90.5679 165.77 97.251 176.102 98.6281 183.415Z" fill="#BFC0BD" stroke="#BFC0BD" stroke-width="0.5"/>
<path fill-rule="evenodd" clip-rule="evenodd" d="M76.3528 112.554C76.8118 116.024 78.3367 123.042 81.3476 125.181C82.0867 126.496 82.748 127.858 83.3471 129.258C82.8959 130.122 82.1179 129.709 81.3321 129.795C78.2045 128.651 75.9405 126.543 74.5478 123.477C72.4394 119.268 71.5836 114.818 71.9804 110.127C72.3461 109.613 74.6023 110.485 75.0847 110.64C75.5982 111.216 76.0183 111.854 76.3528 112.554ZM72.0271 132.673C73.4975 133.07 75.9794 132.658 75.9949 134.821C75.9249 136.268 76.0105 137.692 76.2594 139.092C77.2086 143.931 79.247 150.583 84.7397 151.875C84.2651 152.614 83.635 153.197 82.857 153.61C82.6313 154.613 84.2496 154.512 84.7942 154.994C84.1251 155.204 83.4794 155.469 82.857 155.796C78.399 154.24 75.3181 151.244 73.6142 146.81C71.747 142.251 71.218 137.536 72.0271 132.673ZM98.5027 210.653C99.6697 217.002 98.2381 226.275 93.4767 230.928C92.7376 230.22 91.8896 229.675 90.9404 229.302C90.5359 228.866 90.4192 228.353 90.5981 227.754C93.7101 223.07 93.6635 218.41 93.7335 212.995C93.2667 205.689 89.5634 199.092 82.4602 196.571C82.1256 196.12 82.1645 195.715 82.5691 195.365C91.9441 191.965 97.0711 203.332 98.5027 210.653Z" fill="#BBBDB9" stroke="#BBBDB9" stroke-width="0.5"/>
<path fill-rule="evenodd" clip-rule="evenodd" d="M73.3671 101.67C74.114 102.759 77.0704 103.327 77.5839 104.206C76.8837 106.945 76.4713 109.73 76.3546 112.554C76.0201 111.854 75.6 111.216 75.0865 110.64C74.6041 110.485 72.3479 109.613 71.9822 110.127C71.7644 107.194 72.2234 104.377 73.3671 101.67ZM82.8354 176.553C84.4615 176.864 86.0953 177.137 87.7369 177.362C89.1451 178.389 89.0517 179.268 87.4568 179.992C86.1809 180.319 84.8972 180.357 83.6135 180.109C82.9055 179.331 82.7965 178.49 83.2867 177.572C83.1155 177.238 82.9677 176.895 82.8354 176.553Z" fill="#9EA2A1" stroke="#9EA2A1" stroke-width="0.5"/>
<path fill-rule="evenodd" clip-rule="evenodd" d="M113.169 9.8884C126.418 17.9952 134.798 29.6264 138.291 44.7898C138.143 45.6767 137.878 46.5092 137.489 47.2794C133.701 31.7582 125.057 20.2048 111.527 11.7867C112.212 11.2732 112.757 10.6431 113.169 9.8884Z" fill="#B9BDBD"/>
<path fill-rule="evenodd" clip-rule="evenodd" d="M111.528 11.7867C125.057 20.2047 133.701 31.7581 137.49 47.2794C138.073 53.449 138.338 59.2218 137.871 65.4458C137.459 66.6751 136.408 69.0869 137.879 69.9972C132.783 93.3141 106.525 113.052 82.5234 110.749C81.5198 110.205 79.6526 110.594 78.9913 109.761C78.9212 108.221 79.0768 104.595 80.1972 103.444C83.247 103.311 86.2967 103.218 89.3621 103.156C132.588 97.8109 147.44 45.1321 113.146 18.8977C81.971 -3.8201 37.8036 17.8474 38.356 56.9889C38.1615 73.4982 47.4431 88.4982 61.4783 96.8384C64.5748 98.5111 67.7179 100.075 70.9078 101.53C71.0711 101.934 71.0789 102.347 70.9389 102.767C70.5577 104.463 70.1453 106.136 69.7252 107.793C68.6905 108.33 67.0955 107.38 66.0375 107.155C50.6796 101.833 35.6407 85.853 32.412 69.8883C33.6724 68.1455 32.7932 66.5817 32.342 64.7534C32.1319 60.49 31.9919 56.2265 31.9141 51.9785C37.8814 14.0663 77.1163 -7.18888 111.528 11.7867ZM77.5831 104.206C77.0696 103.327 74.1132 102.759 73.3663 101.67C76.9295 90.6844 90.4124 88.2259 95.345 99.048C95.2983 100.705 92.8164 100.199 91.7272 100.199C85.5421 94.0765 80.1427 96.2082 77.5831 104.206ZM89.8289 145.23C98.846 150.708 100.021 160.954 97.5078 170.399C97.0644 170.734 96.6598 171.146 96.2941 171.62C96.123 171.605 95.9596 171.582 95.7962 171.558C94.8471 170.71 93.9368 169.831 93.081 168.913C92.583 167.59 93.7345 166.509 93.6567 165.14C94.5825 157.764 91.0737 147.728 82.4456 147.448C81.0763 146.74 80.9907 145.931 82.1967 145.02C84.7796 143.48 87.3315 143.55 89.8289 145.23ZM76.5717 212.225C74.9301 212.442 73.2963 212.435 71.6702 212.209C72.067 209.081 72.8761 206.071 74.1132 203.184C74.2688 203.122 74.4244 203.06 74.58 203.005C75.6769 203.916 76.7817 204.849 77.8943 205.806C78.4933 206.911 75.9959 210.272 76.5717 212.225Z" fill="#929797" stroke="#929797" stroke-width="0.5"/>
<path fill-rule="evenodd" clip-rule="evenodd" d="M113.169 9.88838C112.757 10.643 112.212 11.2732 111.527 11.7867C77.1161 -7.18889 37.8812 14.0663 31.9139 51.9785C31.7505 51.4806 31.4316 51.2394 30.9414 51.2472C35.3216 11.2966 78.431 -10.4798 113.169 9.88838Z" fill="#C2C5C5"/>
<path fill-rule="evenodd" clip-rule="evenodd" d="M106.126 4.0611C112.086 6.4418 117.469 9.74833 122.301 13.9729C130.408 20.8894 136.064 29.4319 139.277 39.5927C139.931 41.6466 140.436 43.7317 140.779 45.8634C145.275 70.4407 133.559 94.201 111.798 106.159C108.258 107.925 104.656 109.535 100.999 110.983C100.338 115.565 99.6064 119.782 98.2527 124.255C99.5831 130.666 101.761 135.326 100.345 142.212C97.9181 149.533 98.2216 151.027 100.384 158.262C101.217 163.973 100.299 168.174 98.3538 173.457C97.568 172.601 97.2879 171.574 97.5058 170.399C100.019 160.954 98.844 150.708 89.8269 145.23C89.9202 144.406 90.1147 143.604 90.4104 142.834C91.6241 140.103 91.9897 137.271 91.5151 134.331C91.3907 133.265 91.274 132.199 91.1495 131.133C90.7138 130.479 89.8658 127.406 88.8933 127.694C86.5126 125.555 83.4316 127.383 81.3466 125.181C78.3357 123.042 76.8108 116.024 76.3518 112.554C76.4685 109.73 76.8808 106.945 77.581 104.206C80.1407 96.2082 85.54 94.0765 91.7252 100.199C92.8144 100.199 95.2962 100.705 95.3429 99.048C90.4104 88.2259 76.9275 90.6844 73.3642 101.67C72.2206 104.377 71.7615 107.194 71.9794 110.127C71.5826 114.818 72.4384 119.268 74.5468 123.477C74.1967 124.746 73.831 125.99 73.4498 127.212C72.9286 129.017 72.454 130.845 72.0261 132.673C71.2169 137.536 71.746 142.251 73.6132 146.81C73.6677 148.179 73.7921 149.556 73.9711 150.957C73.8699 151.369 73.7221 151.758 73.5198 152.139C72.9286 153.944 72.4306 155.772 72.0261 157.632C70.8668 163.786 71.9327 169.52 75.2314 174.826C73.2086 176.779 72.1272 178.856 72.6096 181.805C70.3533 184.333 72.0728 193.747 73.7455 196.61C72.983 197.645 73.8621 199.317 72.5084 199.847C69.9177 193.599 68.5717 188.752 70.0344 181.875C70.8902 179.486 71.6137 177.059 72.205 174.6C70.5167 169.559 68.7507 164.758 69.6298 159.312C69.941 156.792 70.649 154.38 71.746 152.085C72.065 151.346 72.2439 150.552 72.2828 149.696C71.3336 146.981 70.5323 144.219 69.871 141.418C69.482 139.092 69.3964 136.758 69.622 134.416C69.8476 131.997 70.4778 129.686 71.5048 127.484C73.4654 123.851 71.1391 121.626 70.4156 118.024C70.1122 116.74 69.9099 115.441 69.8087 114.126C69.5987 113.285 69.6998 110.975 68.8907 110.547C64.1604 108.439 59.15 106.929 54.8243 103.988C48.9737 100.122 43.9011 95.4147 39.6065 89.8675C32.5889 80.2358 28.87 69.4604 28.4577 57.5491C27.9597 16.9838 68.4939 -10.8066 106.126 4.0611ZM30.9395 51.2472C30.1848 57.5568 30.6672 63.7653 32.41 69.8883C35.6387 85.853 50.6776 101.833 66.0354 107.155C67.0935 107.38 68.6884 108.33 69.7232 107.793C70.1433 106.136 70.5556 104.463 70.9368 102.767C71.0769 102.347 71.0691 101.934 70.9057 101.53C67.7159 100.075 64.5728 98.5111 61.4763 96.8384C47.441 88.4982 38.1594 73.4982 38.3539 56.9889C37.8015 17.8474 81.969 -3.82011 113.144 18.8977C147.438 45.1321 132.586 97.8109 89.36 103.156C86.2947 103.218 83.2449 103.311 80.1951 103.444C79.0748 104.595 78.9192 108.221 78.9892 109.761C79.6505 110.594 81.5178 110.205 82.5214 110.749C106.523 113.052 132.781 93.314 137.877 69.9972C140.078 61.6258 140.218 53.2234 138.289 44.7898C134.796 29.6264 126.417 17.9952 113.167 9.88837C78.4291 -10.4798 35.3197 11.2966 30.9395 51.2472ZM43.1309 72.1367C44.4302 75.5055 46.1106 78.672 48.1801 81.6284C50.8876 85.4406 54.0774 88.7861 57.7652 91.6647C61.0639 94.0843 64.5572 96.1927 68.2449 97.9665C69.4742 98.3478 71.7615 99.7326 72.6096 98.0832C78.0789 89.4007 87.8896 87.2145 95.3974 94.9167C96.4633 96.2005 97.358 97.5697 98.0971 99.0246C118.496 93.5163 131.925 72.8758 129.793 52.0097C129.326 47.0382 128.027 42.2923 125.895 37.7721C123.911 33.4075 121.282 29.4864 117.998 25.9931C114.233 21.5118 109.005 18.5087 103.862 15.879C67.7704 -0.708081 28.7922 34.9324 43.1309 72.1367ZM82.0546 100.845C83.2138 100.542 87.6173 101.732 88.0608 100.55C87.2983 98.4022 82.9493 98.2466 82.0546 100.845ZM92.6744 118.125C92.9778 118.988 95.9498 122.271 96.8134 121.68C97.4046 120.319 100.182 111.193 97.1868 111.823C96.0976 112.282 93.4057 111.683 93.3901 113.418C93.1256 114.982 92.8844 116.553 92.6744 118.125ZM78.8881 114.172C79.246 119.688 80.2729 117.106 83.9373 116.678C86.0613 116.709 88.1541 116.942 90.2314 117.378C91.4684 117.269 91.8263 113.145 90.8305 112.749C87.2361 113.099 83.6417 113.099 80.0395 112.772C79.1137 112.78 78.7325 113.239 78.8881 114.172ZM94.3938 136.96C93.7247 139.31 93.2034 141.698 92.8222 144.11C93.2345 145.192 94.985 146.335 95.8253 147.316C96.152 147.456 96.4321 147.393 96.6655 147.121C98.4627 144.421 99.8709 135.342 98.4939 132.813C97.5992 125.594 89.7102 114.546 81.7278 120.404C81.1287 122.373 86.6292 122.754 87.664 123.757C92.5654 126.675 93.3123 131.825 94.3938 136.96Z" fill="#767775"/>
<path fill-rule="evenodd" clip-rule="evenodd" d="M92.6758 118.125C92.8858 116.553 93.127 114.982 93.3916 113.418C93.4071 111.683 96.099 112.282 97.1882 111.823C100.184 111.193 97.4061 120.319 96.8148 121.68C95.9512 122.271 92.9792 118.988 92.6758 118.125Z" fill="#8D9493" stroke="#8D9493" stroke-width="0.5"/>
<path fill-rule="evenodd" clip-rule="evenodd" d="M138.291 44.7898C140.221 53.2234 140.081 61.6258 137.879 69.9972C136.408 69.0869 137.459 66.6751 137.871 65.4458C138.338 59.2218 138.073 53.449 137.49 47.2794C137.879 46.5091 138.143 45.6767 138.291 44.7898Z" fill="#A6ABA9"/>
<path fill-rule="evenodd" clip-rule="evenodd" d="M97.4459 230.632C97.5626 232.328 98.6206 233.153 98.2627 235.083C97.7337 235.604 97.1502 236.071 96.5122 236.483C95.0185 237.479 91.074 236.989 89.2379 237.385C88.5843 237.409 88.242 237.105 88.2031 236.467C89.7514 236.203 91.1751 235.635 92.49 234.771C94.1627 233.41 95.8198 232.033 97.4459 230.632Z" fill="#BFB6AC"/>
<path fill-rule="evenodd" clip-rule="evenodd" d="M73.525 152.139C74.5131 152.808 76.9171 154.481 77.0494 155.679C76.5437 158.293 76.3803 160.938 76.5748 163.599C76.5203 163.996 76.4037 164.369 76.2247 164.727C75.9524 162.821 75.7813 160.915 75.6879 158.986C75.2911 157.998 72.9415 157.819 72.0312 157.632C72.4358 155.772 72.9337 153.944 73.525 152.139Z" fill="#969A9A"/>
<path fill-rule="evenodd" clip-rule="evenodd" d="M73.455 127.212C73.8285 127.173 74.1708 127.258 74.482 127.484C75.4078 128.332 76.3025 129.196 77.1505 130.075C75.9135 133.07 77.2128 136.385 76.2636 139.092C76.0146 137.692 75.9291 136.268 75.9991 134.821C75.9835 132.658 73.5017 133.07 72.0312 132.673C72.4592 130.845 72.9338 129.017 73.455 127.212Z" fill="#999D9D"/>
<path fill-rule="evenodd" clip-rule="evenodd" d="M30.9423 51.2472C31.4324 51.2394 31.7514 51.4806 31.9148 51.9786C31.9926 56.2265 32.1327 60.49 32.3427 64.7534C32.794 66.5818 33.6731 68.1455 32.4127 69.8883C30.67 63.7653 30.1876 57.5569 30.9423 51.2472Z" fill="#A9ACAB"/>
<path fill-rule="evenodd" clip-rule="evenodd" d="M91.5423 160.837C91.4567 162.222 91.589 166.875 90.0719 167.536C89.2161 167.264 88.3369 167.108 87.4422 167.077C87.3489 166.805 87.1699 166.618 86.8976 166.501C85.5517 166.361 84.2368 166.12 82.9531 165.793C84.1668 165.202 85.4583 164.797 86.8198 164.572C87.6212 163.988 87.3022 162.876 88.5548 162.992C88.9671 163.288 89.3872 163.498 89.8385 163.63C90.6476 162.837 90.2042 160.931 91.5423 160.837Z" fill="#D9D8D2"/>
<path fill-rule="evenodd" clip-rule="evenodd" d="M82.8574 155.796C83.4798 155.469 84.1255 155.205 84.7946 154.994C84.25 154.512 82.6317 154.613 82.8574 153.61C83.6354 153.197 84.2655 152.614 84.7401 151.875C85.7827 151.945 86.8096 152.092 87.8211 152.318C89.1125 153.337 89.1281 154.364 87.8677 155.422C86.2417 156.2 84.5768 156.333 82.8574 155.796Z" fill="#A4A5A2"/>
<path fill-rule="evenodd" clip-rule="evenodd" d="M27.0575 227.73C28.5513 227.707 27.431 228.781 27.0731 229.31C25.8594 230.189 24.2723 230.453 23.5721 231.955C23.0275 232.204 22.4829 232.437 21.9227 232.663C20.9969 233.262 19.8921 235.658 18.6006 235.254C18.2505 235.168 18.1105 234.95 18.1571 234.592C20.9424 232.072 23.9066 229.784 27.0575 227.73Z" fill="#8F5B29"/>
<path fill-rule="evenodd" clip-rule="evenodd" d="M70.1817 212.217C70.6797 212.466 71.1776 212.458 71.6677 212.209C73.2938 212.435 74.9276 212.442 76.5692 212.225C77.3083 212.193 78.0474 212.085 78.7632 211.89C82.1086 212.435 88.2704 211.353 91.1646 212.271C91.4602 214.061 91.5069 215.858 91.2969 217.663C75.021 218.161 60.3866 219.616 45.0677 225.567C15.4256 238.537 6.05062 253.303 7.79336 285.723C8.06566 332.909 7.36545 380.897 8.22904 427.974C13.1616 465.551 58.7762 476.918 90.6511 475.603C121.725 474.18 160.843 460.44 162.578 423.944C162.749 372.424 163.029 320.305 162.609 268.856C159.979 237.191 128.346 223.335 100.789 219.196C100.929 217.725 100.524 214.24 101.419 213.096C101.901 213.057 102.391 213.049 102.874 213.065C103.309 213.135 103.737 213.143 104.173 213.088C118.068 215.936 131.349 219.989 143.361 227.785C153.662 234.227 162.531 243.975 166.149 255.754C167.518 259.613 168.351 263.589 168.639 267.673C168.919 271.874 169.035 276.068 168.989 280.277C168.919 323.324 168.887 366.379 168.895 409.426C169.035 416.047 168.849 422.652 168.335 429.25C165.853 447.611 154.051 461.42 137.962 469.846C133.924 471.869 129.785 473.666 125.545 475.222C109.829 480.419 93.7087 482.52 77.176 481.516C64.3856 480.808 52.0231 478.124 40.0884 473.472C35.5682 471.441 31.1491 469.216 26.8312 466.788C15.4956 458.907 7.29545 449.75 3.38207 436.252C2.38623 432.276 1.78715 428.246 1.56931 424.154C1.43704 373.599 1.35925 323.052 1.32812 272.497C1.42927 263.76 3.5299 255.528 7.63777 247.811C7.87896 247.359 8.1279 246.916 8.37687 246.48C11.0765 242.053 14.3364 238.093 18.1564 234.592C18.1097 234.95 18.2498 235.168 18.5999 235.254C19.8914 235.658 20.9961 233.262 21.922 232.663C22.4821 232.437 23.0267 232.204 23.5713 231.955C24.2715 230.453 25.8587 230.189 27.0724 229.31C27.4303 228.781 28.5506 227.707 27.0568 227.73C27.2046 227.629 27.3525 227.536 27.5003 227.435C38.1123 221.008 49.5101 216.605 61.6859 214.232C62.2928 214.45 62.8529 214.372 63.3664 213.998C64.0666 213.609 64.8135 213.431 65.6148 213.462C66.2061 213.734 66.704 213.648 67.1164 213.213C68.2056 213.065 69.2248 212.738 70.1817 212.217Z" fill="#A25712" stroke="#A25712" stroke-width="0.5"/>
<path fill-rule="evenodd" clip-rule="evenodd" d="M63.3719 213.999C62.8584 214.372 62.2983 214.45 61.6914 214.232C62.2049 213.882 62.765 213.796 63.3719 213.999Z" fill="#B18D68"/>
<path fill-rule="evenodd" clip-rule="evenodd" d="M67.1187 213.213C66.7064 213.648 66.2085 213.734 65.6172 213.462C66.084 213.143 66.5819 213.065 67.1187 213.213Z" fill="#BE966E"/>
<path d="M99.8191 295.032C99.2098 296.372 99.2098 299.012 99.7785 299.581C100.103 299.906 99.9816 300.962 99.3316 303.481L98.438 306.933L96.1633 307.38C92.9949 307.99 90.8014 307.949 89.9483 307.177C89.5421 306.812 88.5266 306.446 87.6736 306.324C86.2519 306.08 85.9269 305.796 83.6521 302.343C82.3117 300.272 81.4586 298.687 81.7836 298.809C82.6366 299.134 82.1492 296.21 81.1743 295.153C79.5901 293.366 76.5842 295.194 76.5029 298.037C76.4217 300.84 78.4527 302.465 80.4431 301.165C80.9712 300.8 81.4993 300.515 81.6211 300.515C81.9867 300.515 84.2615 304.415 84.5052 305.471C84.7489 306.446 84.6677 306.608 83.9365 306.608C82.7179 306.608 80.565 307.786 80.8493 308.274C81.0118 308.477 81.2962 308.558 81.4993 308.436C81.7024 308.274 82.1492 308.355 82.5148 308.558C83.4897 309.127 77.7216 309.574 76.3405 309.046C75.4874 308.721 75.1625 308.721 74.8781 309.127C74.0657 310.386 74.7156 310.874 77.5591 310.995C79.1027 311.077 80.7275 311.361 81.1743 311.686C81.743 312.092 82.2304 312.133 83.1241 311.808C83.774 311.605 84.5864 311.523 84.952 311.645C85.277 311.767 86.3331 311.727 87.2674 311.483C88.5266 311.199 89.5015 311.28 90.8014 311.686C92.1418 312.092 92.3449 312.255 91.6138 312.255C90.8013 312.295 90.7201 312.377 91.2076 312.701C91.5325 312.905 92.0606 313.108 92.3449 313.108C93.1167 313.108 92.9136 311.28 92.02 310.467C91.5731 310.061 91.2076 309.411 91.2076 309.005C91.2076 308.436 91.5325 308.274 92.7511 308.274C93.5635 308.314 95.229 308.152 96.407 307.908C97.7068 307.705 98.6411 307.665 98.763 307.908C99.1285 308.518 98.8442 308.599 96.2445 308.68C94.8228 308.721 93.7666 308.964 93.726 309.208C93.6854 309.452 93.6042 310.305 93.5229 311.077C93.4011 312.864 92.9949 313.514 92.02 313.514C91.6138 313.514 91.1669 313.798 91.0451 314.164C90.842 314.692 91.0045 314.773 92.02 314.651C92.6699 314.529 93.2386 314.611 93.2386 314.814C93.2386 314.976 92.5887 315.139 91.8169 315.139C91.0451 315.139 90.3951 315.261 90.3951 315.423C90.3951 315.626 90.9232 316.764 91.5731 317.982C92.2231 319.201 93.0761 321.272 93.4823 322.532C93.8885 323.831 94.4572 324.888 94.7415 324.888C95.5133 324.888 95.3915 323.953 94.2541 321.151C93.198 318.51 92.9949 317.576 93.6042 317.576C94.1322 317.576 96.8538 324.481 96.3664 324.685C95.1884 325.253 93.9291 325.7 93.8885 325.619C93.8479 325.538 93.4823 324.4 93.0761 323.06C92.6699 321.719 91.9793 319.851 91.5325 318.876C90.4764 316.682 89.2984 316.601 87.2674 318.632C85.9675 319.932 85.9269 320.094 86.7799 319.851C87.6736 319.607 87.7142 319.607 86.9424 320.054C86.4956 320.338 86.0488 320.582 86.0081 320.663C85.9269 320.704 86.0488 321.354 86.2925 322.125C86.5362 322.857 86.8205 324.197 86.9424 325.05C87.2268 326.837 89.1359 328.95 90.4764 328.95C91.2076 328.95 91.2482 328.868 90.7607 328.3C90.4764 327.934 89.7858 327.487 89.2984 327.284C88.3641 326.959 87.9173 326.187 87.3892 323.953C87.1861 323.141 87.2674 322.857 87.7548 322.857C88.0798 322.857 88.3641 322.572 88.3641 322.247C88.3641 321.191 89.0953 321.557 90.192 323.141C91.6544 325.334 91.5325 325.984 89.7858 324.888C88.6891 324.197 88.3641 324.156 88.3641 324.603C88.3641 325.416 89.5827 326.431 90.8014 326.594C91.4919 326.675 92.0606 327.203 92.548 328.259C93.4417 330.087 93.2792 330.371 90.3139 332.281C89.2172 333.012 87.9579 334.19 87.5111 334.921C86.6174 336.383 85.5207 336.708 85.5207 335.53C85.5207 334.312 86.6987 333.052 88.3235 332.606C89.1359 332.402 90.2733 331.752 90.842 331.143L91.8169 330.087L90.7607 330.371C89.9889 330.574 89.4203 330.371 88.486 329.518C87.7548 328.909 85.3988 327.812 82.7585 326.959L78.2902 325.456L76.2186 326.634C75.0812 327.284 74.147 327.975 74.147 328.137C74.147 328.3 74.7563 328.665 75.4468 328.909C77.8028 329.762 83.8553 332.362 83.7334 332.524C83.6521 332.606 81.9055 331.996 79.8744 331.224C75.8124 329.6 74.2282 329.478 70.7755 330.371C68.0539 331.062 67.6071 331.103 68.4601 330.574C68.9882 330.25 68.9882 330.168 68.4601 330.006C61.6765 327.569 57.3301 326.106 57.2082 326.228C57.127 326.309 58.7112 327.162 60.7016 328.097C62.7326 329.031 64.4387 329.925 64.5605 330.128C64.6824 330.331 63.6263 330.818 62.1639 331.184C59.6455 331.874 59.0768 332.402 59.8892 333.215C60.0923 333.459 61.1078 335.043 62.1233 336.789L63.9512 339.917L62.7732 339.308C60.661 338.211 56.1115 333.255 54.1211 329.843C51.9276 326.147 50.3434 324.644 47.4593 323.547L45.5095 322.816L47.7437 323.1C50.9933 323.466 54.1211 324.238 60.9453 326.35C69.3944 328.95 69.435 328.95 76.5842 325.416C83.2866 322.044 86.2925 320.094 81.8648 321.922C79.4276 322.938 78.7777 323.019 73.3346 323.06C70.0849 323.06 64.4793 322.897 60.8641 322.694C55.8678 322.41 54.1211 322.45 53.6742 322.816C53.3493 323.06 53.0243 323.141 52.9431 322.938C52.74 322.369 43.1942 321.963 42.463 322.491C42.0162 322.816 41.9756 322.978 42.3818 323.141C43.0317 323.385 43.0317 324.075 42.3411 324.075C42.0568 324.075 41.4475 324.36 41.0007 324.725C40.2289 325.334 40.2695 325.334 41.1631 325.172C42.1787 324.928 42.3411 325.375 41.4475 326.106C41.1225 326.391 40.8382 326.756 40.8382 326.959C40.8382 327.569 41.8537 327.365 43.9253 326.309C46.6063 324.928 48.1499 324.685 49.1654 325.456C49.9778 326.066 49.9778 326.066 49.1248 326.106C48.1092 326.106 46.525 327.69 46.525 328.706C46.525 329.762 47.5812 331.59 48.6779 332.443C49.206 332.89 51.5214 334.718 53.7961 336.546C56.0709 338.414 58.2237 339.917 58.5487 339.917C59.3611 339.917 64.8449 343.248 65.1292 343.898C65.2105 344.182 65.1292 344.629 64.8855 344.873C64.6418 345.117 64.5605 345.563 64.6824 345.848C64.8043 346.173 64.6418 346.416 64.2356 346.416C63.8294 346.416 63.7075 346.66 63.87 347.026C63.9918 347.391 64.3168 348.691 64.5605 349.991C64.8855 351.778 65.1698 352.347 65.8198 352.428C66.8353 352.631 68.0945 353.728 67.8102 354.175C67.6883 354.378 67.2009 354.5 66.7134 354.5C66.0229 354.459 65.9822 354.419 66.5509 354.256C67.6477 353.972 67.3633 353.444 65.7791 352.916C64.6012 352.51 64.2356 352.51 63.9512 352.956C63.545 353.647 63.87 354.134 64.8449 354.134C65.2511 354.134 65.6167 354.337 65.6167 354.581C65.6167 354.825 65.3323 354.906 64.9667 354.784C64.6012 354.662 64.0731 354.541 63.7481 354.541C63.4232 354.541 63.1794 354.134 63.1794 353.688C63.1794 352.753 63.017 352.753 59.1174 353.525C58.5487 353.606 59.0361 353.444 60.1329 353.078C63.6263 352.022 63.9918 351.778 63.9918 350.682C63.9918 349.301 63.0576 349.341 58.5081 350.885C56.5177 351.535 54.8522 352.022 54.771 351.941C54.6491 351.86 60.0923 349.829 62.692 349.057C62.9357 348.935 63.1794 348.651 63.1794 348.407C63.1794 347.798 61.6765 348.163 57.6957 349.869C55.9084 350.6 54.0398 351.332 53.5524 351.494C52.3744 351.819 52.3338 351.088 53.4305 350.479C53.8774 350.235 54.1617 349.91 54.0805 349.707C53.7961 349.301 55.624 347.229 56.274 347.229C56.5583 347.229 56.6802 347.513 56.5177 347.879C56.3958 348.204 56.4364 348.407 56.6395 348.285C56.8426 348.163 57.0864 348.326 57.2488 348.651C57.452 349.179 57.7363 349.138 59.3205 348.366C60.336 347.879 61.1484 347.229 61.1484 346.945C61.1484 346.66 60.8641 345.36 60.4985 344.06C59.8486 341.867 59.6861 341.664 57.0864 339.998C54.2429 338.252 53.2274 337.967 50.4652 338.414C44.3722 339.389 39.2946 346.173 39.0103 353.728C38.8884 356.693 39.8633 360.796 41.3256 363.518C45.144 370.626 53.5524 372.089 59.6455 366.767C61.3921 365.224 63.3419 361.446 63.9918 358.44L64.4387 356.247L67.1602 355.962C69.1913 355.759 70.2474 355.881 71.3848 356.328C73.5377 357.262 79.3058 357.181 82.7179 356.206C86.3331 355.19 86.9018 354.825 88.3641 352.713C89.3796 351.25 89.7046 350.235 90.0296 347.351C90.2733 345.36 90.9232 342.314 91.4919 340.526C92.8324 336.302 95.7164 330.412 96.1633 331.103C96.6101 331.834 96.5695 332.199 96.0008 332.077C95.5539 331.996 93.1573 336.993 92.6293 339.186C92.3856 340.202 92.4262 340.323 93.4011 340.323C94.051 340.323 94.5791 340.039 94.7415 339.592C94.904 339.227 95.5133 338.049 96.1633 336.952C97.0975 335.368 97.2194 334.84 96.8538 333.987C96.6507 333.377 96.5288 332.809 96.6507 332.727C96.8944 332.484 98.3568 337.114 99.291 341.136C99.7379 343.045 100.225 344.954 100.388 345.36C100.591 345.888 100.55 346.051 100.225 345.848C99.9816 345.726 99.4129 345.97 98.9661 346.457C97.8693 347.635 95.6758 352.225 95.4321 353.931C95.3915 354.134 95.3102 354.419 95.2696 354.541C95.229 354.662 95.1071 356.206 95.0259 357.993C94.7415 364.614 96.8944 370.423 101.281 374.77C104.003 377.41 106.197 378.669 109.406 379.319C110.462 379.563 111.802 379.847 112.411 379.969C114.117 380.335 122.485 377.369 122.485 376.394C122.485 376.232 122.77 376.069 123.095 376.069C123.42 376.069 123.704 375.948 123.704 375.744C123.704 375.582 124.435 374.688 125.288 373.754C126.669 372.251 129.594 367.133 129.594 366.117C129.594 365.874 129.756 365.467 129.919 365.183C130.122 364.939 130.122 364.493 130 364.289C129.838 364.046 129.919 363.64 130.122 363.355C130.569 362.787 130.528 356.165 130.081 355.434C129.878 355.19 129.878 354.744 130 354.541C130.163 354.297 130.081 353.85 129.838 353.566C129.553 353.241 129.391 352.834 129.431 352.672C129.553 352.185 128.903 349.91 128.578 349.666C128.457 349.544 128.01 348.772 127.644 347.919C127.238 347.107 126.75 346.416 126.547 346.416C126.304 346.416 126.141 346.213 126.141 345.929C126.141 345.279 121.714 341.136 121.023 341.136C120.698 341.136 120.454 341.014 120.454 340.811C120.454 340.405 117.245 339.024 115.783 338.82C113.346 338.536 111.68 338.536 110.218 338.82L108.715 339.145L107.212 334.352C105.709 329.559 105.262 328.584 104.775 329.031C104.45 329.396 107.415 338.861 107.903 339.064C108.146 339.145 107.659 339.592 106.806 340.08C105.384 340.892 105.222 341.136 105.262 342.476C105.303 343.329 105.425 344.101 105.547 344.223C105.628 344.345 106.846 344.06 108.228 343.573C111.071 342.639 113.264 342.558 114.971 343.37C115.661 343.695 115.824 343.898 115.377 343.817C114.93 343.695 114.036 343.532 113.346 343.411C112.005 343.126 107.74 344.101 106.359 344.995C105.506 345.563 105.465 345.523 104.653 343.451C104.206 342.314 103.109 339.877 102.216 338.089C101.281 336.302 100.55 334.555 100.55 334.149C100.55 333.784 100.388 333.337 100.144 333.215C99.941 333.093 99.4535 331.915 99.0879 330.656C98.7223 329.396 98.2755 328.259 98.0724 328.137C97.9099 328.015 98.113 327.69 98.5599 327.406C99.291 326.919 99.3723 326.959 99.1692 327.609C99.0473 328.015 99.2504 329.234 99.6566 330.29C100.347 332.037 100.428 332.159 101.038 331.509C101.566 330.981 101.85 330.94 102.297 331.346C102.744 331.712 104.734 336.505 105.628 339.389C105.831 339.998 107.05 339.633 107.009 338.942C107.009 338.699 106.318 336.464 105.506 334.027C103.881 329.153 103.475 328.828 101.403 330.696C100.753 331.306 100.51 331.387 100.632 330.981C100.794 330.331 103.719 328.787 105.465 328.381C106.481 328.178 106.521 328.259 107.821 332.809C108.552 335.408 109.324 337.602 109.527 337.724C110.096 338.049 109.974 337.602 108.471 332.809C107.456 329.6 107.212 328.3 107.578 328.056C108.796 327.325 113.183 327.244 116.027 327.934C118.789 328.625 125.085 328.909 125.613 328.422C126.385 327.609 122.363 325.416 118.017 324.278C116.067 323.791 114.158 323.628 110.705 323.75L106.034 323.872L105.912 319.81C105.79 315.179 105.262 312.295 104.165 310.345C103.231 308.68 103.434 308.274 105.1 308.314C106.359 308.355 107.659 307.258 107.212 306.527C106.846 305.999 104.125 306.608 102.825 307.502C101.769 308.233 101.688 308.274 101.891 307.665C102.297 306.608 101.85 306.121 100.916 306.608C100.307 306.974 100.063 306.893 99.8597 306.365C99.4535 305.309 100.428 301.043 101.322 299.744C101.891 298.972 102.175 297.916 102.175 296.778C102.175 294.097 100.713 293.041 99.8191 295.032ZM84.8301 308.518C84.5458 308.599 84.0584 308.599 83.8146 308.518C83.5303 308.396 83.7334 308.314 84.3021 308.314C84.8708 308.314 85.0739 308.396 84.8301 308.518ZM103.597 310.792C103.922 311.32 104.328 312.377 104.45 313.148C104.734 314.489 104.734 314.529 103.922 313.798C102.866 312.864 102.419 312.905 102.703 313.92C102.947 314.854 102.256 315.017 101.931 314.123C101.566 313.23 100.672 313.392 100.428 314.367C100.185 315.22 100.144 315.22 99.1692 314.083C98.3161 313.148 98.0724 313.026 97.7474 313.473C97.5443 313.798 97.0975 313.92 96.7319 313.798C96.3664 313.636 96.082 313.717 96.082 313.961C96.082 314.529 98.113 316.357 98.7223 316.357C99.4129 316.357 100.388 317.901 100.753 319.607L101.038 320.988L98.7223 318.916C95.1477 315.707 94.2135 314.042 94.4166 310.995C94.4572 310.264 95.5539 310.061 100.225 309.939C102.663 309.858 103.028 309.939 103.597 310.792ZM90.5982 310.467C89.5827 310.833 86.2519 310.955 86.7799 310.63C87.1049 310.427 88.161 310.305 89.1765 310.305C90.192 310.305 90.842 310.386 90.5982 310.467ZM105.181 318.916C105.587 321.963 105.262 322.735 103.841 322.247C102.866 321.963 102.663 320.826 103.597 320.826C104.612 320.826 104.287 319.769 103.109 319.201L101.972 318.632L103.109 318.47C104.815 318.266 104.45 317.332 102.5 316.967C101.038 316.723 100.875 316.642 101.566 316.317C102.013 316.154 102.947 316.032 103.597 316.073C104.775 316.154 104.815 316.235 105.181 318.916ZM95.8383 318.388C96.0414 319.079 96.0008 319.201 95.757 318.795C95.5539 318.47 95.229 317.738 95.1071 317.17C94.904 316.479 94.9446 316.357 95.1884 316.764C95.3915 317.088 95.7164 317.82 95.8383 318.388ZM89.1765 319.201C88.8516 319.404 88.4047 319.607 88.161 319.607C87.9579 319.607 88.0392 319.404 88.3641 319.201C88.6891 318.998 89.1765 318.795 89.3796 318.795C89.6234 318.795 89.5015 318.998 89.1765 319.201ZM97.0569 321.638C97.26 322.329 97.2194 322.45 96.9757 322.044C96.7726 321.719 96.4476 320.988 96.3257 320.419C96.1226 319.729 96.1633 319.607 96.407 320.013C96.6101 320.338 96.935 321.069 97.0569 321.638ZM101.525 322.329C102.5 323.182 103.353 323.994 103.353 324.156C103.434 325.009 101.931 324.278 100.225 322.653C97.8287 320.379 98.8442 320.135 101.525 322.329ZM67.5664 323.71C70.5317 323.953 73.8626 324.075 75 323.994C76.5029 323.831 76.9092 323.913 76.5842 324.238C75.8124 325.009 65.6167 324.685 60.7422 323.71C56.5583 322.897 56.5177 322.897 59.3205 323.06C60.9047 323.182 64.6012 323.466 67.5664 323.71ZM98.7223 324.928C98.8848 325.375 98.8848 325.863 98.763 325.984C98.6411 326.147 98.5192 325.944 98.5192 325.538C98.5192 325.172 98.113 324.685 97.6256 324.481L96.6913 324.116H97.585C98.113 324.075 98.5599 324.4 98.7223 324.928ZM111.721 325.131C109.04 325.456 105.587 325.984 104.003 326.269C100.956 326.878 100.103 326.797 102.013 326.106C103.922 325.375 109.852 324.563 113.346 324.563H116.595L111.721 325.131ZM121.267 327.081L123.095 327.731L120.86 327.528C119.642 327.406 117.611 327.041 116.392 326.716L114.158 326.147L116.798 326.309C118.261 326.391 120.251 326.756 121.267 327.081ZM78.463 326.005C77.6462 326.391 77.0007 327.813 76.0258 327.528C74.8884 327.244 75.9343 327.569 77.1123 327C78.3715 326.391 78.6154 325.243 78.463 326.005ZM94.3353 327.812C94.2135 328.097 94.1322 327.894 94.1322 327.325C94.1322 326.756 94.2135 326.553 94.3353 326.797C94.4166 327.081 94.4166 327.569 94.3353 327.812ZM51.0745 327.487C51.9276 327.69 52.4963 328.381 53.7149 330.656C54.5273 332.24 56.1927 334.637 57.4113 335.896C59.4017 338.049 59.8079 339.105 58.6299 339.105C57.2895 339.105 48.1499 330.981 48.1499 329.803C48.1499 329.437 48.4342 328.747 48.7592 328.218C49.3685 327.406 49.3685 327.365 48.6779 327.569C48.1092 327.772 48.0686 327.731 48.5154 327.406C48.8404 327.162 49.2872 327.041 49.531 327.122C49.7747 327.203 50.4652 327.365 51.0745 327.487ZM81.8142 327.224C82.7485 327.67 83.7334 328.422 84.1396 328.259C84.7083 328.056 84.2615 327.985 84.8608 328.442C85.9675 328.747 84.5864 327.985 85.3177 328.747C86.2926 328.219 86.6174 329.112 85.9675 329.925C85.2363 330.818 84.0177 330.94 83.0022 330.25C82.4742 329.884 81.743 329.64 81.3774 329.681C80.9712 329.762 80.6462 329.6 80.6462 329.356C80.6462 329.072 80.3213 328.99 79.8744 329.153C78.7777 329.478 76.696 327.853 77.5491 326.919C78.4021 325.985 79.8238 326.249 81.8142 327.224ZM98.5192 333.255C99.4535 336.058 100.103 338.455 99.9816 338.577C99.8597 338.699 99.616 338.374 99.4129 337.846C97.7068 333.296 97.3006 332.118 96.7726 330.25C96.407 329.112 96.2851 328.137 96.4882 328.137C96.6507 328.137 97.585 330.453 98.5192 333.255ZM95.6758 328.95C95.6758 329.153 95.3915 329.356 95.0665 329.356C94.7415 329.356 94.4572 329.153 94.4572 328.95C94.4572 328.706 94.7415 328.543 95.0665 328.543C95.3915 328.543 95.6758 328.706 95.6758 328.95ZM87.9579 330.534C87.7548 330.981 87.0236 331.549 86.3331 331.874C85.2363 332.362 85.1145 332.565 85.1145 334.312C85.1145 335.733 84.9926 336.18 84.5864 336.018C84.1396 335.855 84.0584 335.083 84.2615 333.134C84.3427 332.443 87.1455 329.762 87.8361 329.762C88.2423 329.762 88.2829 329.965 87.9579 330.534ZM65.1292 332.077C64.3168 332.402 63.545 332.93 63.4638 333.215C63.3419 333.459 63.9512 335.286 64.8043 337.196C65.6979 339.145 66.226 340.73 66.0229 340.73C65.8604 340.73 64.8449 339.064 63.7887 337.033C62.0014 333.54 61.9202 333.337 62.5701 332.606C63.2607 331.834 64.2356 331.509 65.8198 331.468C66.3072 331.468 66.0229 331.712 65.1292 332.077ZM72.2784 335.936C67.8102 340.526 66.226 343.37 66.226 346.904C66.226 349.504 65.7791 349.991 65.3729 347.879C65.0886 346.173 65.6573 344.304 67.6883 340.323C68.5413 338.658 69.6381 336.302 70.1255 335.124C70.613 333.946 71.1004 333.052 71.1817 333.174C71.3035 333.255 71.1004 333.865 70.7755 334.515C69.1913 337.602 69.5568 337.724 72.4409 334.921C76.6654 330.859 76.5842 331.631 72.2784 335.936ZM89.1765 335.815C88.5266 337.155 88.4047 337.886 88.6078 339.673C88.9328 342.558 88.6078 343.736 87.2674 344.589C86.13 345.32 86.13 345.32 86.8612 344.507C87.5923 343.695 87.8361 342.111 87.1861 342.558C86.5362 342.964 87.1861 339.917 88.486 336.464C89.1765 334.677 89.7858 333.418 89.8671 333.702C89.9483 333.946 89.664 334.921 89.1765 335.815ZM74.7969 335.53C74.2282 336.261 72.9283 337.683 71.9128 338.617C70.0443 340.364 67.6477 344.792 67.6477 346.457C67.6477 346.863 67.4852 347.229 67.2415 347.229C66.6728 347.229 67.2009 344.873 68.2976 342.476C68.9069 341.176 70.4911 339.186 72.4003 337.317C74.1063 335.611 75.5687 334.23 75.6499 334.23C75.7312 334.23 75.3656 334.84 74.7969 335.53ZM91.0451 337.114C90.4764 338.536 90.0296 339.511 90.0296 339.227C89.9889 338.617 91.695 334.19 91.8981 334.352C91.9793 334.474 91.6138 335.693 91.0451 337.114ZM77.8028 336.505C77.8028 336.586 77.4372 336.668 76.9904 336.668C76.5436 336.668 76.178 336.505 76.178 336.302C76.178 336.099 76.5436 336.018 76.9904 336.139C77.4372 336.261 77.8028 336.424 77.8028 336.505ZM80.4838 336.749C80.6462 336.993 80.6056 337.074 80.3213 336.911C80.0775 336.789 79.7526 336.871 79.5901 337.114C79.387 337.439 79.6307 337.521 80.4431 337.358C81.743 337.114 83.6522 338.13 83.2053 338.82C83.0835 339.064 83.1647 339.105 83.4084 338.942C84.0584 338.536 85.9269 339.877 85.805 340.689C85.6426 341.664 85.1145 342.395 84.7083 342.151C84.2615 341.867 83.0835 342.354 83.0835 342.801C83.0835 343.004 83.3678 343.167 83.7334 343.167C84.0584 343.167 84.2615 343.004 84.099 342.801C83.9771 342.558 84.2615 342.436 84.7083 342.476C85.8863 342.558 85.4801 343.329 84.1396 343.492C83.0022 343.654 79.9963 342.111 78.9808 340.892C78.6152 340.405 78.6152 340.283 78.9402 340.486C79.1839 340.648 79.4276 340.567 79.4276 340.364C79.4276 340.12 79.8338 339.917 80.3619 339.958C81.2149 339.958 81.2149 339.998 80.4431 340.323C79.9963 340.526 79.8338 340.689 80.1182 340.689C80.3619 340.73 80.9306 340.851 81.3368 340.973C81.9461 341.176 81.9461 341.136 81.4586 340.77C80.9306 340.405 80.9306 340.323 81.4586 340.323C82.596 340.283 80.9712 339.511 79.7526 339.511C79.0214 339.511 78.6152 339.308 78.6152 338.902C78.6152 338.536 79.0214 338.252 79.7526 338.252C80.6869 338.171 80.7275 338.171 79.9557 338.008C79.062 337.846 78.7371 337.074 79.3058 336.546C79.712 336.139 80.1588 336.221 80.4838 336.749ZM63.87 341.298C65.576 342.395 65.6167 342.964 63.9106 342.111C61.9202 341.095 60.336 339.917 60.336 339.43C60.336 339.186 60.8234 339.349 61.4734 339.755C62.0827 340.12 63.1794 340.851 63.87 341.298ZM75.2437 339.511C73.5783 340.039 72.7659 340.77 73.4158 341.176C73.7814 341.42 73.7001 341.542 73.0502 341.542C71.7504 341.542 70.8973 341.948 70.8973 342.598C70.8973 342.923 70.4911 343.167 70.0443 343.167C69.2725 343.167 69.2319 343.086 69.7193 342.517C70.7755 341.258 74.3501 339.105 75.3656 339.145C76.3811 339.186 76.3811 339.186 75.2437 339.511ZM77.9653 341.055C78.4527 342.436 81.7024 344.954 83.6928 345.442C84.9114 345.726 85.4395 346.66 84.7895 347.31C84.5052 347.594 84.3021 347.432 84.099 346.863C83.7334 345.604 83.0022 345.807 83.1241 347.107C83.2459 348.326 82.8804 348.61 81.8648 348.041C81.3774 347.757 81.3368 347.473 81.743 346.457C82.2304 345.076 81.9055 344.792 81.0118 345.848C80.565 346.416 80.6056 346.741 81.3774 348.123C82.2304 349.707 82.2304 350.763 81.418 350.235C80.7275 349.829 79.5495 347.066 79.7526 346.295C79.8744 345.726 79.712 345.563 79.1433 345.685C78.5746 345.767 78.4527 346.132 78.534 347.026C78.6152 347.716 78.8183 348.407 78.9808 348.569C79.6713 349.26 78.9402 350.844 77.7216 351.332C76.5842 351.819 76.5436 351.86 77.2341 352.388C77.6403 352.672 78.2902 352.834 78.6965 352.672C79.4682 352.428 79.712 353.078 79.062 353.525C78.8183 353.647 77.356 353.809 75.7312 353.931L72.8065 354.094L74.6344 352.185C76.9092 349.869 77.9653 347.879 77.6403 346.579C77.4778 346.051 76.6248 345.035 75.6905 344.385C74.7969 343.695 74.147 343.167 74.3094 343.167C74.7969 343.167 77.7216 344.751 77.9653 345.157C78.209 345.523 80.24 344.832 80.24 344.385C80.24 343.898 77.9247 342.842 76.2998 342.558C73.9032 342.192 73.6595 341.501 75.9343 341.745C77.9653 341.948 78.1278 341.786 77.1123 340.364C76.6654 339.673 76.6248 339.47 76.9904 339.592C77.3154 339.673 77.7216 340.364 77.9653 341.055ZM105.181 347.148C106.44 350.885 107.456 354.053 107.456 354.256C107.456 354.419 107.09 354.541 106.643 354.541C106.115 354.541 105.953 354.337 106.075 353.972C106.197 353.647 105.547 350.925 104.653 347.96C103.719 344.954 102.987 342.192 102.987 341.826C102.987 340.689 102.094 340.567 101.281 341.583C100.835 342.111 100.55 342.354 100.672 342.151C100.753 341.908 100.956 341.42 101.078 341.014C101.241 340.648 101.688 340.323 102.134 340.323C102.784 340.323 103.272 341.42 105.181 347.148ZM53.8367 342.964C54.5273 343.329 55.0553 343.695 55.0553 343.817C55.0553 343.898 54.5273 343.736 53.8367 343.37C52.3338 342.598 49.2872 342.598 47.7843 343.329C45.9157 344.304 43.7629 347.026 43.1129 349.301C42.3005 351.981 42.3005 356.612 43.0723 359.253C44.5346 364.208 49.531 367.214 53.1868 365.305C54.8929 364.411 55.0553 364.574 53.4711 365.589C51.7245 366.727 49.2466 366.686 47.0125 365.549C39.7821 361.852 39.8633 347.391 47.1344 343.289C49.0435 342.192 52.09 342.07 53.8367 342.964ZM122.729 343.857C122.485 344.101 121.267 343.492 121.267 343.126C121.267 342.923 121.632 342.964 122.079 343.248C122.485 343.532 122.81 343.817 122.729 343.857ZM51.8869 345.888L51.9276 347.838L52.09 346.091C52.2119 344.873 52.4556 344.385 52.9025 344.385C53.5118 344.385 53.5118 344.914 52.7806 347.107C52.6181 347.554 52.9837 347.351 53.7149 346.538C54.7304 345.401 54.9335 345.32 55.3803 345.848C55.8678 346.376 55.8271 346.579 55.1772 347.31C54.771 347.757 53.918 348.488 53.268 348.976C52.1713 349.747 52.0494 349.747 51.6026 349.097C51.3183 348.732 50.9527 347.554 50.7902 346.498C50.6277 345.442 50.4246 344.792 50.3028 345.035C50.2215 345.279 50.3027 346.254 50.5059 347.148C50.8308 348.529 50.7902 348.854 50.2215 349.057C49.4091 349.382 48.1499 347.919 48.1499 346.62C48.1499 345.401 49.6934 344.101 51.3183 344.02C51.6432 343.979 51.8463 344.67 51.8869 345.888ZM71.4254 346.904C71.3035 348.529 71.0598 350.032 70.8567 350.235C70.3693 350.803 70.4099 346.741 70.8973 345.442C71.141 344.751 71.141 344.385 70.8973 344.385C70.1662 344.385 69.5975 346.538 69.7599 348.772C69.8818 350.6 69.8006 350.803 69.3537 350.194C68.6632 349.301 68.9069 345.523 69.6381 344.629C69.9631 344.264 70.5317 343.979 70.9379 343.979C71.5879 343.979 71.6285 344.264 71.4254 346.904ZM113.63 346.335L113.671 348.244L113.833 346.498C113.996 344.995 114.117 344.792 115.011 344.792C115.539 344.792 115.986 344.995 115.986 345.238C115.986 345.442 116.189 345.523 116.392 345.401C116.636 345.279 116.798 345.401 116.798 345.726C116.798 346.132 117.083 346.254 117.611 346.132C118.139 345.97 118.423 346.132 118.423 346.498C118.423 347.229 117.042 348.569 116.677 348.163C116.514 348.041 116.352 348.123 116.352 348.366C116.23 349.422 116.189 349.625 115.905 349.91C115.702 350.072 115.58 349.869 115.539 349.422C115.539 349.016 115.295 349.382 115.052 350.235C114.321 352.591 113.549 352.591 113.508 350.194C113.468 348.651 113.386 348.447 113.143 349.26C112.899 350.194 112.818 350.154 112.574 348.651C112.411 347.757 112.127 346.66 111.924 346.213C111.599 345.482 111.558 345.482 111.518 346.416C111.477 347.432 111.477 347.432 111.03 346.538C110.421 345.279 110.827 344.589 112.29 344.507C113.508 344.426 113.549 344.467 113.63 346.335ZM108.918 346.295C109.202 346.701 109.487 347.391 109.487 347.838C109.527 348.285 109.649 348.407 109.771 348.123C109.852 347.879 110.096 347.635 110.299 347.635C110.746 347.635 111.071 349.504 110.705 350.072C110.38 350.6 109.487 349.341 108.512 347.107C107.862 345.482 108.024 345.157 108.918 346.295ZM74.1876 347.838C73.822 349.057 73.822 349.057 73.7814 347.432C73.7408 346.416 73.8626 345.97 74.147 346.254C74.3907 346.498 74.3907 347.107 74.1876 347.838ZM76.178 348.123C76.178 350.194 75.9749 350.032 75.6499 347.716C75.5281 346.741 75.6093 346.091 75.8124 346.254C76.0155 346.376 76.178 347.229 76.178 348.123ZM108.593 348.691C109.527 350.113 110.299 351.575 110.299 351.9C110.299 353.038 109.527 352.916 108.877 351.657C108.512 350.966 108.106 350.479 108.024 350.6C107.903 350.722 108.187 351.535 108.634 352.469C109.121 353.363 109.487 354.378 109.487 354.744C109.487 355.069 109.568 355.353 109.649 355.353C109.73 355.353 110.137 355.475 110.502 355.637C111.071 355.84 111.152 355.719 110.908 355.028C110.584 353.931 111.68 353.769 112.086 354.825C112.208 355.231 112.452 355.759 112.574 356.044C112.696 356.328 112.493 356.45 112.005 356.287C111.558 356.206 110.827 356.287 110.34 356.531C109.771 356.856 109.487 356.856 109.487 356.572C109.487 355.719 109.406 355.556 108.918 354.947C108.431 354.419 105.831 347.107 105.831 346.295C105.831 345.32 107.09 346.416 108.593 348.691ZM47.9874 347.716C48.5967 348.935 48.5967 349.016 47.9061 349.504C47.4593 349.829 46.9313 350.235 46.6469 350.479C45.9564 351.047 45.7126 351.007 45.7126 350.275C45.7126 349.95 45.997 349.666 46.3219 349.666C46.6469 349.666 46.8906 349.341 46.85 348.935C46.7688 347.838 46.9313 346.416 47.1344 346.416C47.2156 346.416 47.6218 346.985 47.9874 347.716ZM102.216 350.316C102.906 352.306 103.597 354.784 103.759 355.84C104.084 357.668 104.044 357.709 102.866 357.953C100.753 358.359 100.063 358.237 100.225 357.506C100.307 356.937 100.713 356.775 101.972 356.856L103.597 356.897L102.094 356.45C101.038 356.165 100.55 355.8 100.55 355.272C100.55 354.5 101.566 354.256 101.972 354.947C102.094 355.15 102.419 355.353 102.663 355.353C102.947 355.353 102.906 355.109 102.581 354.744C102.297 354.419 101.809 354.134 101.485 354.134C101.16 354.134 100.956 353.85 101.038 353.403C101.119 353.038 101.485 352.753 101.85 352.753C102.459 352.794 102.459 352.631 101.891 350.763C101.566 349.625 101.119 348.285 100.916 347.757C100.51 346.66 100.428 346.173 100.753 346.498C100.875 346.579 101.525 348.326 102.216 350.316ZM119.804 347.513C119.926 347.676 119.276 348.61 118.342 349.625L116.595 351.494L118.342 349.869C119.764 348.569 120.211 348.326 120.779 348.691C121.957 349.463 121.795 350.6 120.292 352.063L118.87 353.444L117.773 352.55C117.002 351.941 116.555 351.819 116.149 352.103C115.417 352.753 114.971 351.819 115.62 350.966C116.555 349.747 118.992 347.229 119.236 347.229C119.398 347.229 119.642 347.351 119.804 347.513ZM87.9579 351.088C87.1049 352.875 85.9269 354.216 85.9269 353.403C85.9269 353.159 86.13 352.834 86.3331 352.713C86.5768 352.591 86.7393 352.063 86.7393 351.575C86.7393 350.763 86.6581 350.803 86.0081 351.9C85.2363 353.159 82.0273 355.637 81.6617 355.272C81.5399 355.15 82.1898 354.541 83.1241 353.931C85.1957 352.469 85.9269 351.413 85.9269 349.95C85.9269 348.447 86.8612 348.691 87.1455 350.316C87.3486 351.291 87.4299 351.372 87.6736 350.763C87.8361 350.357 87.9579 349.504 87.9579 348.935C87.9985 347.96 88.0392 347.919 88.4047 348.569C88.7297 349.097 88.6078 349.747 87.9579 351.088ZM84.7083 349.138C84.7083 349.341 84.3427 349.91 83.8959 350.479C83.0428 351.535 82.7991 350.966 83.4897 349.625C83.8959 348.854 84.7083 348.569 84.7083 349.138ZM69.2319 351.981C70.1662 352.753 70.8161 353.525 70.6942 353.647C70.5724 353.769 69.8412 353.241 69.0694 352.51C67.9727 351.453 67.5258 351.25 67.1602 351.616C66.4697 352.306 66.0229 352.225 66.0229 351.372C66.0229 350.154 67.4446 350.438 69.2319 351.981ZM74.9594 351.25C74.9594 351.616 72.0347 352.916 71.1817 352.916C70.8161 352.916 73.9845 351.21 74.8781 350.925C74.9187 350.885 74.9594 351.047 74.9594 351.25ZM112.29 352.185C112.29 353.322 112.208 353.403 111.924 352.713C111.437 351.575 111.437 350.885 111.924 350.885C112.168 350.885 112.33 351.494 112.29 352.185ZM122.81 351.738C122.851 352.063 121.917 352.956 120.779 353.728C116.88 356.328 116.636 356.287 119.276 353.606C121.835 350.966 122.567 350.56 122.81 351.738ZM45.8751 352.875C45.7126 353.566 45.5095 354.094 45.4283 353.972C45.3064 353.891 45.3471 353.2 45.5095 352.51C45.8751 350.844 46.2001 351.169 45.8751 352.875ZM48.5561 351.86C48.5561 351.981 48.3936 352.185 48.1499 352.306C47.9468 352.428 47.7437 352.347 47.7437 352.144C47.7437 351.9 47.9468 351.697 48.1499 351.697C48.3936 351.697 48.5561 351.778 48.5561 351.86ZM82.2711 352.713C82.2711 352.834 81.8242 353.444 81.2555 354.053C80.6462 354.703 80.4025 355.231 80.6869 355.394C81.6617 356.003 79.8744 356.328 76.4217 356.247C71.8722 356.125 70.2068 355.394 74.4719 355.353C77.4778 355.353 79.8744 354.541 81.0118 353.159C81.5399 352.51 82.2711 352.266 82.2711 352.713ZM123.866 354.581C123.745 354.784 123.176 354.987 122.567 354.987C121.632 355.028 121.673 355.109 122.892 355.312C124.151 355.515 124.313 355.719 124.435 356.937C124.516 357.75 124.354 358.44 124.029 358.643C123.623 358.928 123.663 359.009 124.232 359.009C124.801 359.009 124.882 359.212 124.679 360.106C124.516 360.755 124.354 361.284 124.313 361.324C124.313 361.405 123.46 361.284 122.445 361.121C121.226 360.918 120.617 360.593 120.536 360.106C120.414 359.577 120.698 359.415 121.551 359.374C122.688 359.293 122.688 359.293 121.632 359.131C120.739 359.009 120.495 358.643 120.129 357.059C119.926 356.003 119.804 355.028 119.926 354.866C120.007 354.662 120.779 354.175 121.592 353.769C122.973 353.038 123.135 353.038 123.582 353.606C123.866 353.972 123.988 354.419 123.866 354.581ZM50.0996 354.053C50.1809 354.337 49.9778 354.541 49.6122 354.541C49.2466 354.541 48.9623 354.703 48.9623 354.947C48.9623 355.15 49.0841 355.312 49.2872 355.312C49.4497 355.272 49.9372 355.272 50.384 355.353L51.1964 355.394L50.384 355.759C49.1654 356.287 48.9623 356.247 48.5967 355.231C48.3936 354.703 48.3936 354.134 48.6779 353.809C49.1248 353.241 49.8559 353.363 50.0996 354.053ZM115.377 354.175C115.174 354.744 115.255 354.947 115.499 354.784C115.742 354.662 116.027 354.703 116.189 354.947C116.473 355.394 115.58 355.475 114.564 355.109C113.996 354.866 113.996 354.784 114.605 354.094C115.499 353.078 115.702 353.119 115.377 354.175ZM47.4187 354.622C47.1344 354.906 46.9313 354.947 46.9313 354.703C46.9313 354.134 47.4187 353.647 47.703 353.931C47.7843 354.053 47.6624 354.378 47.4187 354.622ZM57.6144 354.012C57.3301 354.094 56.8426 354.094 56.5989 354.012C56.3146 353.891 56.5177 353.809 57.0864 353.809C57.6551 353.809 57.8582 353.891 57.6144 354.012ZM54.446 354.744C53.5524 355.069 52.4556 355.272 52.0088 355.272C51.562 355.272 52.0088 355.028 53.0243 354.744C55.4209 354.053 56.5583 354.053 54.446 354.744ZM85.3988 354.378C85.277 354.5 84.9114 354.541 84.627 354.419C84.3021 354.297 84.4239 354.175 84.8708 354.175C85.3176 354.134 85.5613 354.256 85.3988 354.378ZM45.8751 356.247C45.997 356.937 46.4032 357.871 46.7688 358.237C47.3781 358.928 47.2562 359.821 46.525 359.821C46.1188 359.821 45.7126 358.684 45.4689 356.693C45.3471 355.881 45.1846 355.069 45.0221 354.825C44.9002 354.581 44.9815 354.541 45.1846 354.662C45.4283 354.825 45.7126 355.515 45.8751 356.247ZM48.3123 356.653C48.5561 356.815 48.5967 357.059 48.4342 357.262C48.028 357.628 47.3375 356.612 47.3781 355.759C47.4187 355.231 47.4187 355.231 47.6218 355.759C47.7437 356.084 48.0686 356.49 48.3123 356.653ZM114.767 355.759C114.767 355.962 114.605 356.165 114.361 356.165C114.158 356.165 113.955 355.962 113.955 355.759C113.955 355.515 114.158 355.353 114.361 355.353C114.605 355.353 114.767 355.515 114.767 355.759ZM58.305 356.165C58.305 356.368 58.0206 356.572 57.6957 356.572C57.3707 356.572 57.0864 356.368 57.0864 356.165C57.0864 355.922 57.3707 355.759 57.6957 355.759C58.0206 355.759 58.305 355.922 58.305 356.165ZM118.301 357.059C118.139 358.928 116.839 359.496 115.377 358.359L114.564 357.75L115.377 357.262C116.149 356.815 117.448 356.287 118.098 356.206C118.261 356.165 118.383 356.572 118.301 357.059ZM53.8367 357.465C53.8367 357.75 54.2836 358.318 54.8522 358.806C56.1115 359.821 56.5583 361.771 55.7459 362.868C55.1366 363.64 55.096 363.64 54.3242 362.949C53.918 362.543 53.2274 361.487 52.8212 360.634C52.1713 359.212 52.1713 358.846 52.6181 357.993C53.1868 356.937 53.8367 356.653 53.8367 357.465ZM50.1809 357.546C50.1809 357.993 49.4091 358.156 49.1654 357.79C49.0435 357.587 49.206 357.384 49.531 357.384C49.8965 357.384 50.1809 357.465 50.1809 357.546ZM57.8175 357.831C57.7363 358.075 57.4926 358.237 57.2895 358.237C57.0864 358.237 56.8426 358.075 56.7614 357.831C56.6802 357.587 56.9239 357.384 57.2895 357.384C57.6551 357.384 57.8988 357.587 57.8175 357.831ZM111.802 357.831C112.29 358.318 112.046 359.821 111.437 359.821C111.233 359.821 111.193 359.456 111.315 358.968C111.558 358.237 111.477 358.156 110.746 358.399C110.259 358.521 109.893 358.481 109.893 358.278C109.893 357.384 111.071 357.1 111.802 357.831ZM114.239 358.278C114.117 358.603 113.996 358.481 113.996 358.034C113.955 357.587 114.077 357.343 114.199 357.506C114.321 357.628 114.361 357.993 114.239 358.278ZM113.549 358.928C113.549 359.537 113.468 359.537 113.143 359.009C112.615 358.196 112.615 357.668 113.143 357.993C113.386 358.115 113.549 358.562 113.549 358.928ZM105.79 359.821L107.131 361.487L103.719 361.365C100.428 361.243 100.347 361.202 100.225 360.187C100.103 359.293 100.307 359.049 101.444 358.724C103.8 357.953 104.409 358.115 105.79 359.821ZM57.0051 358.928C57.2895 359.131 57.4113 359.577 57.2488 360.024C56.9645 360.715 56.9239 360.715 56.3958 359.984C55.5022 358.765 55.8271 358.196 57.0051 358.928ZM118.829 359.009C118.829 359.212 118.626 359.415 118.383 359.415C118.18 359.415 118.098 359.212 118.22 359.009C118.342 358.765 118.545 358.603 118.667 358.603C118.748 358.603 118.829 358.765 118.829 359.009ZM117.205 360.309C117.205 360.471 116.798 360.552 116.311 360.471C115.783 360.431 115.133 360.634 114.889 360.999C114.483 361.527 114.442 361.405 114.808 360.349C115.214 359.171 115.336 359.09 116.23 359.496C116.758 359.74 117.205 360.106 117.205 360.309ZM48.1499 359.699C48.1092 359.902 47.8655 360.471 47.5406 361.04L46.9719 362.055L46.9313 360.999C46.9313 360.431 47.0531 359.821 47.2156 359.699C47.5812 359.334 48.1499 359.334 48.1499 359.699ZM51.8057 360.024C51.8057 360.837 50.9527 364.696 50.7902 364.696C49.9778 364.696 48.5561 363.599 48.5561 362.99C48.5561 362.543 48.3936 362.34 48.1499 362.462C47.6218 362.787 47.6218 362.299 48.1905 360.674C48.5967 359.537 48.7998 359.415 50.2215 359.415C51.3183 359.415 51.8057 359.577 51.8057 360.024ZM109.487 359.821C109.487 360.024 109.121 360.227 108.634 360.227C108.187 360.227 107.943 360.024 108.065 359.821C108.187 359.577 108.593 359.415 108.918 359.415C109.243 359.415 109.487 359.577 109.487 359.821ZM111.924 361.243C111.64 361.568 111.03 361.852 110.543 361.852C109.73 361.852 109.771 361.812 110.705 361.284C112.086 360.512 112.533 360.512 111.924 361.243ZM118.545 361.73C118.261 361.852 118.017 362.096 118.017 362.34C118.017 362.543 117.773 362.99 117.448 363.315C116.92 363.802 116.717 363.761 115.702 362.827L114.564 361.771L116.108 362.015C117.408 362.177 117.611 362.137 117.205 361.649C116.839 361.243 116.92 361.08 117.489 360.959C118.383 360.755 119.276 361.446 118.545 361.73ZM54.2429 364.127C54.2429 364.249 54.0805 364.249 53.8774 364.086C53.6742 363.965 53.3899 364.046 53.2274 364.289C53.1056 364.493 52.6181 364.696 52.1713 364.696C51.4401 364.696 51.3995 364.533 51.6432 363.152C51.8057 362.34 52.0088 361.527 52.09 361.324C52.2525 361.04 54.2429 363.64 54.2429 364.127ZM103.597 362.787C101.2 363.68 100.591 363.599 100.55 362.34C100.55 362.015 101.363 361.852 103.312 361.893H106.034L103.597 362.787ZM108.674 362.665C109.081 363.396 108.796 363.883 106.359 366.442L103.597 369.326L106.197 367.133L108.796 364.939L107.253 367.742C105.628 370.789 105.019 371.642 105.019 370.951C105.019 370.707 104.369 369.854 103.597 369.042C102.825 368.23 102.175 367.214 102.175 366.808C102.175 365.589 106.278 362.218 108.146 361.852C108.187 361.852 108.431 362.218 108.674 362.665ZM124.516 362.258C124.516 362.462 124.354 362.665 124.151 362.665C123.988 362.665 123.907 363.152 124.029 363.761L124.232 364.858L122.567 363.518C121.632 362.787 120.86 362.096 120.86 362.015C120.86 361.933 121.673 361.852 122.688 361.852C123.704 361.852 124.516 362.015 124.516 362.258ZM115.783 364.655C115.58 365.021 115.336 365.021 114.889 364.655C114.402 364.249 114.239 364.249 113.914 364.736C113.63 365.183 113.549 365.102 113.549 364.411C113.549 363.924 113.671 363.233 113.793 362.868C114.036 362.258 114.199 362.299 115.092 363.193C115.62 363.761 115.945 364.411 115.783 364.655ZM103.434 364.371C101.85 365.833 101.606 365.955 101.281 365.346C101.078 364.939 100.956 364.574 101.038 364.493C101.241 364.289 104.775 362.665 105.019 362.665C105.14 362.665 104.409 363.436 103.434 364.371ZM112.818 363.558C112.696 364.046 112.533 364.249 112.411 363.965C112.33 363.68 112.086 363.558 111.883 363.721C111.477 363.965 111.396 363.355 111.802 362.949C112.411 362.299 113.061 362.705 112.818 363.558ZM123.257 364.818C123.663 365.346 123.42 366.686 122.648 367.864C122.445 368.148 118.829 365.833 118.829 365.467C118.829 365.224 119.236 364.533 119.723 363.883L120.576 362.705L121.673 363.477C122.282 363.883 122.973 364.533 123.257 364.818ZM111.802 366.239C112.411 366.605 112.411 366.849 111.965 368.352C111.68 369.286 111.558 370.139 111.64 370.261C111.762 370.342 111.965 369.895 112.127 369.205C112.615 366.97 112.94 367.58 113.061 370.951C113.143 373.023 113.021 374.038 112.818 373.673C112.533 373.307 112.33 373.267 112.168 373.592C111.518 374.648 111.03 373.957 111.274 372.292L111.518 370.586L110.99 372.007C110.584 373.145 110.299 373.388 109.487 373.307C108.959 373.267 108.431 373.104 108.309 373.023C108.106 372.779 108.959 365.874 109.324 364.899C109.568 364.33 109.69 364.33 110.34 365.061C110.746 365.508 111.396 366.036 111.802 366.239ZM119.804 366.97C122.12 368.27 122.323 368.595 121.47 369.53C120.86 370.261 120.739 370.22 119.033 368.433C118.058 367.377 117.367 366.402 117.448 366.239C117.733 365.792 117.692 365.792 119.804 366.97ZM116.798 367.133C116.92 367.174 117.123 367.214 117.286 367.174C117.692 367.133 120.048 370.058 120.048 370.626C120.048 370.87 119.804 371.317 119.479 371.561C119.033 371.967 118.789 371.885 118.464 371.317C118.098 370.667 118.058 370.707 118.017 371.642C118.017 372.617 117.367 373.226 116.392 373.226C116.189 373.226 115.58 372.251 115.052 371.032C113.508 367.661 113.427 367.214 114.239 367.052C114.93 366.889 116.352 366.97 116.798 367.133ZM108.024 369.895C107.862 371.276 107.618 372.414 107.496 372.414C107.375 372.414 106.928 372.129 106.521 371.845C105.831 371.317 105.831 371.195 106.928 369.245C107.537 368.108 108.106 367.255 108.146 367.295C108.228 367.377 108.146 368.514 108.024 369.895ZM114.605 371.073C115.417 372.86 115.499 373.429 115.092 373.673C114.199 374.241 113.996 374.079 113.793 372.698C113.427 370.342 113.264 368.758 113.427 368.758C113.508 368.758 114.036 369.773 114.605 371.073ZM123.46 374.079C122.404 375.257 119.236 377.288 118.464 377.288C118.098 377.247 118.464 376.922 119.236 376.476C120.007 376.069 121.389 375.095 122.282 374.323C124.029 372.779 124.719 372.657 123.46 374.079ZM117.327 377.572C117.042 377.654 116.555 377.654 116.311 377.572C116.027 377.45 116.23 377.369 116.798 377.369C117.367 377.369 117.57 377.45 117.327 377.572Z" fill="black"/>
<path d="M87.9962 341.38C87.9962 341.826 88.1181 341.948 88.24 341.623C88.3618 341.339 88.3212 340.973 88.1994 340.851C88.0775 340.689 87.9556 340.933 87.9962 341.38Z" fill="black"/>
<path d="M79.5502 338.983C79.9157 339.064 80.4844 339.064 80.7688 338.983C81.0125 338.861 80.7281 338.78 80.0376 338.78C79.3877 338.78 79.1439 338.861 79.5502 338.983Z" fill="black"/>
<path d="M83.0834 339.917C83.4083 340.12 83.8958 340.323 84.0989 340.323C84.3426 340.323 84.2207 340.12 83.8958 339.917C83.5708 339.714 83.124 339.511 82.8803 339.511C82.6772 339.511 82.7584 339.714 83.0834 339.917Z" fill="black"/>
<path d="M79.4297 340.933C79.4297 341.217 81.9075 342.436 82.1106 342.273C82.1919 342.151 81.6232 341.786 80.8514 341.42C80.0796 341.055 79.4297 340.811 79.4297 340.933Z" fill="black"/>
<path d="M82.878 341.176C82.4312 341.826 82.8374 341.948 83.406 341.298C83.6904 340.973 83.731 340.73 83.5279 340.73C83.3248 340.73 82.9998 340.933 82.878 341.176Z" fill="black"/>
<path d="M84.3008 341.177C84.3008 341.38 84.5039 341.461 84.707 341.339C84.9507 341.217 85.1132 341.014 85.1132 340.892C85.1132 340.811 84.9507 340.73 84.707 340.73C84.5039 340.73 84.3008 340.933 84.3008 341.177Z" fill="black"/>
<path d="M52.089 348.326C51.9265 348.447 51.8047 348.772 51.8047 349.016C51.8047 349.26 52.0078 349.219 52.2921 348.935C52.5359 348.691 52.6577 348.366 52.5765 348.244C52.4546 348.122 52.2109 348.163 52.089 348.326Z" fill="black"/>
<path d="M115.664 347.229C115.664 348.001 115.745 348.326 115.867 347.919C115.948 347.554 115.948 346.904 115.867 346.498C115.745 346.132 115.664 346.457 115.664 347.229Z" fill="black"/>
<path d="M117.285 367.945C117.285 368.27 117.448 369.001 117.61 369.57C117.854 370.383 117.935 370.423 117.935 369.773C117.935 369.326 117.813 368.595 117.61 368.148C117.407 367.661 117.285 367.58 117.285 367.945Z" fill="black"/>
<path d="M82.1919 323.019C80.6483 323.913 79.4297 324.766 79.4297 324.888C79.4297 325.172 86.3352 327.447 86.5383 327.244C86.6195 327.203 86.5789 326.634 86.457 326.066C86.2945 325.091 86.1321 325.009 84.1823 325.131C81.9482 325.294 82.0294 325.213 85.4415 324.238C85.6852 324.156 85.929 323.75 85.929 323.344C85.929 322.938 85.6852 322.329 85.4415 321.963C84.9541 321.394 84.5885 321.516 82.1919 323.019Z" fill="black"/>
<path d="M53.4336 325.903C53.4336 326.025 53.8398 326.919 54.3272 327.934C55.2615 329.843 56.7239 330.696 57.5769 329.843C58.2268 329.193 56.2364 326.716 54.6522 326.187C54.0023 325.944 53.4336 325.822 53.4336 325.903Z" fill="black"/>
<path d="M96.1198 338.252C94.7387 340.892 94.6981 341.136 95.1856 341.136C95.5918 341.136 97.7853 336.221 97.5416 335.936C97.4197 335.855 96.8104 336.871 96.1198 338.252Z" fill="black"/>
<path d="M60.9824 343.654C61.1043 344.385 61.4292 345.36 61.6323 345.807C61.9167 346.498 61.9573 346.457 61.7542 345.604C61.673 345.035 61.5511 344.101 61.5511 343.451C61.5511 342.842 61.348 342.354 61.1043 342.354C60.8199 342.354 60.7793 342.842 60.9824 343.654Z" fill="black"/>
<path d="M79.3744 327.166C79.2481 327.234 78.6568 327.681 78.6431 327.723C78.6362 327.743 78.7579 327.795 78.9143 327.846C79.1854 327.935 79.2044 327.93 79.379 327.785L79.5605 327.637L79.6553 327.876C79.7431 328.101 79.7744 328.129 80.0299 328.212C80.1758 328.26 80.3061 328.286 80.3129 328.265C80.3181 328.249 80.2915 328.137 80.2493 328.019C80.2071 327.901 80.1789 327.794 80.184 327.778C80.1891 327.762 80.3642 327.722 80.5774 327.688C80.8878 327.639 80.9363 327.615 80.8423 327.567C80.778 327.534 80.6582 327.512 80.5697 327.518C80.483 327.518 80.2713 327.529 80.0961 327.535C79.7735 327.551 79.6762 327.513 79.8216 327.44C79.87 327.415 79.9149 327.366 79.9269 327.33C79.9594 327.231 79.5129 327.096 79.3744 327.166Z" fill="black"/>
<path d="M81.125 327.723C80.9361 327.754 80.5678 328.031 80.5113 328.186C80.4531 328.363 80.6445 328.484 81.2248 328.651C81.8015 328.811 82.0253 328.798 82.2794 328.587C82.4885 328.407 82.545 328.253 82.4386 328.137C82.3166 328.016 81.314 327.693 81.125 327.723ZM81.9189 328.296C81.8573 328.483 81.6718 328.521 81.3225 328.406C80.9733 328.291 80.9505 328.255 81.1545 328.091C81.2703 328.002 81.3172 328 81.6143 328.097C81.8906 328.188 81.9428 328.223 81.9189 328.296Z" fill="black"/>
<path d="M82.6284 328.24C82.5788 328.392 82.59 328.938 82.6473 328.957C82.7464 328.989 83.0838 328.788 83.1197 328.679C83.1864 328.476 83.0849 328.292 82.8608 328.219C82.7044 328.167 82.6506 328.173 82.6284 328.24Z" fill="black"/>
<path d="M83.8224 328.632C83.4499 328.747 82.7105 329.047 82.6968 329.088C82.6865 329.12 82.7996 329.18 82.9403 329.226C83.1906 329.308 83.227 329.303 83.7533 329.071C84.0563 328.94 84.3125 328.81 84.3211 328.784C84.3571 328.692 83.994 328.584 83.8224 328.632Z" fill="black"/>
<path d="M84.556 328.816C84.4658 328.809 83.8818 329.339 83.8408 329.465C83.8219 329.522 84.0375 329.604 84.2353 329.617C84.3724 329.622 84.9858 329.072 84.9575 328.965C84.9433 328.903 84.7435 328.825 84.556 328.816Z" fill="black"/>
<path d="M38.4771 404V397.237L38.3439 396.172H41.5658L43.909 400.831L46.3055 396.172H49.3543V404H46.8114V399.513H46.6649L46.1058 400.951L45.1339 403.201H42.7108L41.699 400.951L41.1531 399.513H41.02V404H38.4771ZM50.5299 404L54.4308 396.172H57.8924L61.7799 404H58.9175L58.2652 402.575H54.0581L53.3258 404H50.5299ZM54.7903 400.738H57.5196L56.2282 397.902H56.095L54.7903 400.738ZM71.5964 404.133C71.2414 404.133 70.8464 404.08 70.4115 403.973C69.9766 403.858 69.5462 403.583 69.1201 403.148L68.5609 402.589C68.2947 402.322 68.0373 402.105 67.7888 401.936C67.5491 401.768 67.274 401.643 66.9633 401.564C66.6527 401.475 66.2621 401.43 65.7917 401.43H65.6852V404H63.0891V397.237L62.9559 396.158H69.1201C69.6882 396.158 70.1453 396.229 70.4914 396.371C70.8464 396.504 71.1172 396.686 71.3035 396.917C71.4988 397.139 71.632 397.392 71.703 397.676C71.774 397.96 71.8095 398.249 71.8095 398.541V398.794C71.8095 399.327 71.6719 399.806 71.3967 400.232C71.1305 400.649 70.7044 400.947 70.1186 401.124C70.3405 401.257 70.5491 401.395 70.7444 401.537C70.9485 401.67 71.1793 401.812 71.4367 401.963C71.7296 402.132 72.0003 402.256 72.2488 402.336C72.5062 402.407 72.7192 402.451 72.8879 402.469C73.0565 402.487 73.1541 402.496 73.1808 402.496L72.7814 404C72.6748 404.027 72.5106 404.053 72.2888 404.08C72.0757 404.115 71.845 404.133 71.5964 404.133ZM67.2296 399.66C67.4515 399.66 67.6645 399.655 67.8686 399.646C68.0817 399.638 68.2725 399.624 68.4411 399.607C68.7429 399.571 68.947 399.478 69.0535 399.327C69.1689 399.167 69.2266 398.976 69.2266 398.754V398.608C69.2266 398.413 69.1689 398.262 69.0535 398.155C68.947 398.049 68.7473 397.996 68.4544 397.996H65.6852V399.607C65.9071 399.615 66.1512 399.629 66.4175 399.646C66.6837 399.655 66.9544 399.66 67.2296 399.66ZM82.9982 404.133C82.5633 404.133 82.1417 404.044 81.7334 403.867C81.3251 403.689 80.9657 403.45 80.655 403.148C80.4952 402.988 80.3355 402.828 80.1757 402.669C80.016 402.509 79.8562 402.349 79.6964 402.189C79.3591 401.852 78.9997 401.586 78.618 401.391C78.2452 401.186 77.7748 401.084 77.2068 401.084H77.0736V404H74.5174V397.237L74.3843 396.172H77.0736V399.247H77.4731C77.6239 399.247 77.7393 399.229 77.8192 399.194C77.908 399.149 78.0012 399.074 78.0988 398.967C78.3118 398.737 78.547 398.457 78.8044 398.129C79.0707 397.791 79.3281 397.45 79.5766 397.104C79.834 396.749 80.0515 396.438 80.229 396.172H83.4908L82.9449 396.97C82.7231 397.21 82.4745 397.472 82.1994 397.756C81.9331 398.04 81.6668 398.32 81.4006 398.595C81.1343 398.861 80.8902 399.105 80.6683 399.327C80.4464 399.549 80.2689 399.722 80.1358 399.846C80.4109 399.962 80.6506 400.095 80.8547 400.246C81.0589 400.388 81.2807 400.552 81.5204 400.738C81.7423 400.907 81.9331 401.062 82.0929 401.204C82.2615 401.346 82.4612 401.506 82.692 401.683C83.1713 402.056 83.584 402.291 83.9302 402.389C84.2852 402.478 84.5115 402.522 84.6091 402.522L84.0766 404C83.9878 404.027 83.8458 404.053 83.6506 404.08C83.4642 404.115 83.2467 404.133 82.9982 404.133ZM85.0139 405.065L88.4621 396.251L88.6219 395.572H90.8985L87.4503 404.413L87.2905 405.065H85.0139ZM94.6053 404V397.969H91.4366V396.158H100.397V397.969H97.1881V404H94.6053ZM101.727 404V396.172H110.274V397.982H104.323V399.087H108.73V400.938H104.323V402.176H110.061L110.86 403.854C110.86 403.889 110.74 403.925 110.5 403.96C110.261 403.987 109.848 404 109.262 404H101.727ZM111.128 404L111.634 403.201L114.456 400.086L111.128 396.172H114.469L116.107 398.581H116.254L117.891 396.172H121.233L120.714 396.957L117.904 400.086L121.233 404H117.891L116.254 401.577H116.107L114.469 404H111.128ZM124.665 404V397.969H121.496V396.158H130.456V397.969H127.248V404H124.665Z" fill="black"/>
<path d="M68.587 416V413.391H69.4315L69.5772 413.46C69.6898 413.441 69.816 413.425 69.9558 413.414C70.0994 413.398 70.2528 413.391 70.4159 413.391H70.7304C70.8431 413.391 70.9518 413.406 71.0566 413.437C71.1615 413.464 71.2391 413.505 71.2896 413.559C71.3556 413.525 71.4275 413.495 71.5051 413.472C71.5828 413.445 71.6818 413.425 71.8022 413.414C71.9265 413.398 72.0837 413.391 72.274 413.391H72.5652C72.7594 413.391 72.9089 413.418 73.0137 413.472C73.1186 413.526 73.1924 413.594 73.2351 413.676C73.2817 413.757 73.3088 413.841 73.3166 413.926C73.3283 414.008 73.3341 414.078 73.3341 414.136V416H72.2682V414.357C72.2682 414.202 72.175 414.124 71.9886 414.124H71.6624C71.6003 414.124 71.5576 414.132 71.5343 414.148C71.511 414.163 71.4993 414.198 71.4993 414.253V416H70.4159V414.357C70.4159 414.202 70.3227 414.124 70.1363 414.124H69.8393C69.7655 414.124 69.7169 414.132 69.6936 414.148C69.6742 414.159 69.6645 414.194 69.6645 414.253V416H68.587ZM74.87 416C74.5283 416 74.2836 415.936 74.1361 415.808C73.9885 415.68 73.9147 415.466 73.9147 415.167C73.9147 414.891 73.9905 414.691 74.1419 414.567C74.2972 414.443 74.5399 414.381 74.87 414.381H75.0506C75.268 414.381 75.4758 414.388 75.6738 414.404C75.8718 414.42 76.0427 414.435 76.1864 414.451V414.357C76.1864 414.303 76.1747 414.251 76.1514 414.2C76.1281 414.15 76.0466 414.124 75.9068 414.124H75.6156C75.1923 414.124 74.8661 414.132 74.637 414.148C74.4079 414.159 74.2662 414.171 74.2118 414.183L74.1477 413.565C74.1477 413.526 74.2157 413.495 74.3516 413.472C74.4875 413.445 74.6739 413.425 74.9108 413.414C75.1476 413.398 75.4175 413.391 75.7204 413.391H76.3029C76.5592 413.391 76.7553 413.429 76.8912 413.507C77.0271 413.581 77.1203 413.682 77.1707 413.81C77.2212 413.938 77.2465 414.086 77.2465 414.253V416H76.4194L76.1922 415.884C76.099 415.903 75.9495 415.928 75.7437 415.959C75.5418 415.986 75.3088 416 75.0447 416H74.87ZM75.2078 415.313H76.0116C76.0971 415.313 76.1475 415.305 76.1631 415.289C76.1786 415.274 76.1864 415.225 76.1864 415.144V414.94H75.2078C75.134 414.94 75.0797 414.953 75.0447 414.981C75.0098 415.008 74.9923 415.06 74.9923 415.138C74.9923 415.212 75.0098 415.26 75.0447 415.284C75.0797 415.303 75.134 415.313 75.2078 415.313ZM77.9156 416V413.391H78.7427L78.964 413.507C79.1427 413.391 79.3795 413.332 79.6746 413.332C79.8688 413.332 80.0397 413.354 80.1872 413.396C80.3348 413.435 80.4532 413.478 80.5425 413.525C80.6357 413.571 80.694 413.604 80.7173 413.624L80.426 414.381C80.3872 414.354 80.3134 414.317 80.2047 414.27C80.0998 414.223 79.9756 414.181 79.8319 414.142C79.6882 414.099 79.5368 414.078 79.3776 414.078H79.3135C79.2048 414.078 79.1213 414.097 79.063 414.136C79.0048 414.171 78.9757 414.251 78.9757 414.375V416H77.9156ZM84.1467 416.058C83.9565 416.058 83.7895 416.039 83.6458 416C83.506 415.961 83.3721 415.878 83.2439 415.75C83.1662 415.672 83.0886 415.594 83.0109 415.517C82.9333 415.439 82.8556 415.361 82.7779 415.284C82.7158 415.218 82.6653 415.167 82.6265 415.132C82.5877 415.093 82.5488 415.068 82.51 415.056C82.475 415.041 82.4246 415.033 82.3586 415.033C82.2731 415.033 82.2226 415.041 82.2071 415.056C82.1916 415.072 82.1838 415.124 82.1838 415.214V416H81.1237V412.313H82.1838V414.288H82.3702C82.4362 414.288 82.4983 414.26 82.5566 414.206C82.5915 414.171 82.644 414.107 82.7139 414.014C82.7876 413.921 82.8672 413.818 82.9527 413.705C83.0381 413.592 83.1158 413.49 83.1857 413.396H84.4089L84.3157 413.577C84.2225 413.693 84.1137 413.822 83.9895 413.961C83.8691 414.101 83.7507 414.229 83.6342 414.346C83.5216 414.462 83.4303 414.544 83.3604 414.59C83.5118 414.691 83.6536 414.8 83.7856 414.917C83.9176 415.029 84.0866 415.13 84.2924 415.219C84.4283 415.278 84.5428 415.317 84.636 415.336C84.7331 415.352 84.801 415.359 84.8399 415.359L84.6768 416C84.638 416.012 84.5719 416.023 84.4787 416.035C84.3894 416.05 84.2788 416.058 84.1467 416.058ZM84.9578 416.466L86.4664 412.61L86.5363 412.313H87.5323L86.0237 416.181L85.9538 416.466H84.9578ZM89.0142 416C88.7191 416 88.5172 415.938 88.4085 415.814C88.2997 415.689 88.2454 415.503 88.2454 415.254V414.124H87.7677V413.391H88.0124C88.0784 413.391 88.1308 413.379 88.1697 413.356C88.2124 413.328 88.2396 413.282 88.2512 413.216L88.3619 412.593H89.3171V413.391H90.2898V414.124H89.3171V415.027C89.3171 415.124 89.3404 415.188 89.387 415.219C89.4336 415.251 89.5035 415.266 89.5967 415.266H90.1792L90.2957 415.942C90.2141 415.953 90.0899 415.967 89.9229 415.983C89.7559 415.994 89.5734 416 89.3754 416H89.0142ZM91.6507 416C91.3944 416 91.1964 415.963 91.0566 415.889C90.9207 415.816 90.8275 415.715 90.777 415.586C90.7265 415.454 90.7013 415.303 90.7013 415.132V414.253C90.7013 414.097 90.7265 413.956 90.777 413.827C90.8313 413.695 90.9265 413.591 91.0624 413.513C91.1983 413.431 91.3944 413.391 91.6507 413.391H92.8564C93.1593 413.391 93.3903 413.427 93.5495 413.501C93.7126 413.571 93.8233 413.672 93.8816 413.804C93.9437 413.932 93.9747 414.082 93.9747 414.253V414.998H92.9554C92.6059 414.998 92.3399 414.99 92.1574 414.975C91.9788 414.959 91.8526 414.95 91.7788 414.946V415.033C91.7749 415.188 91.8681 415.266 92.0584 415.266H92.239C92.5496 415.266 92.837 415.26 93.101 415.249C93.3651 415.233 93.5612 415.219 93.6893 415.208L94.0388 415.761C94.0388 415.8 94.0058 415.837 93.9398 415.872C93.8738 415.907 93.7573 415.938 93.5903 415.965C93.4272 415.988 93.1942 416 92.8914 416H91.6507ZM91.7788 414.439H92.8972V414.357C92.8972 414.28 92.8894 414.225 92.8739 414.194C92.8622 414.163 92.8215 414.144 92.7516 414.136C92.6817 414.128 92.5632 414.124 92.3963 414.124H92.0584C91.872 414.124 91.7788 414.202 91.7788 414.357V414.439ZM94.3306 416L94.447 415.767L95.4547 414.689L94.3306 413.391H95.5654L96.1013 414.119H96.1595L96.707 413.391H97.9477L97.8545 413.577L96.7828 414.689L97.9477 416H96.7012L96.1595 415.301H96.1013L95.5654 416H94.3306ZM99.3667 416C99.0716 416 98.8697 415.938 98.761 415.814C98.6522 415.689 98.5979 415.503 98.5979 415.254V414.124H98.1203V413.391H98.3649C98.4309 413.391 98.4833 413.379 98.5222 413.356C98.5649 413.328 98.5921 413.282 98.6037 413.216L98.7144 412.593H99.6696V413.391H100.642V414.124H99.6696V415.027C99.6696 415.124 99.6929 415.188 99.7395 415.219C99.7861 415.251 99.856 415.266 99.9492 415.266H100.532L100.648 415.942C100.567 415.953 100.442 415.967 100.275 415.983C100.108 415.994 99.9259 416 99.7279 416H99.3667Z" fill="black"/>
</svg>
