<svg width="1748" height="395" viewBox="0 0 1748 395" fill="none" xmlns="http://www.w3.org/2000/svg">
<path d="M113.08 20.8074C88.9103 33.7553 63.8778 49.2927 57.8354 56.1983C51.7931 63.967 67.3305 57.0614 92.3631 41.524C126.028 20.8074 151.06 12.1755 195.083 7.85954L252.917 1.8172L204.578 0.0908127C169.187 -0.772381 145.881 4.40677 113.08 20.8074Z" fill="black"/>
<path d="M265.864 16.4943C272.77 20.8103 283.128 25.1262 287.444 25.1262C292.623 25.1262 290.034 20.8103 283.128 16.4943C276.223 12.1784 266.727 7.86239 261.548 7.86239C257.232 7.86239 258.959 12.1784 265.864 16.4943Z" fill="black"/>
<path d="M157.968 24.2611C118.261 34.6194 99.2708 46.7041 64.7432 84.6845C-8.62809 166.688 18.1308 305.662 119.124 360.043C151.926 377.306 166.6 379.896 211.486 376.443C311.616 368.674 378.082 300.482 378.082 205.531C378.082 177.909 373.766 145.108 368.587 131.297C358.228 102.812 313.342 54.4728 283.131 38.0722C254.645 23.3979 189.906 15.6292 157.968 24.2611ZM209.759 93.3164C207.17 102.812 208.896 112.307 214.075 115.759C218.391 118.349 222.707 128.707 222.707 138.202C222.707 158.056 225.297 158.056 258.098 140.792C301.258 119.212 303.847 131.297 261.551 154.603C225.297 174.456 212.349 189.131 231.339 189.131C235.655 189.131 252.056 181.362 267.593 171.867C283.131 162.372 302.121 154.603 309.026 154.603C315.932 154.603 307.3 163.235 290.036 173.593C258.961 191.72 247.74 206.395 265.004 206.395C269.32 206.395 275.362 214.163 278.815 222.795C281.404 232.29 292.626 240.922 302.121 242.649C326.29 246.101 333.196 266.818 310.753 266.818C301.258 266.818 291.763 263.365 290.036 259.912C289.173 255.596 272.772 249.554 255.508 246.965L223.57 241.785L220.118 282.355L217.528 322.925L215.802 278.039C213.212 215.89 196.811 208.984 196.811 270.271C196.811 297.03 193.359 318.609 188.18 318.609C183.864 318.609 179.548 301.346 179.548 279.766V240.922L151.925 246.965C136.388 249.554 115.671 257.323 106.176 264.228C96.6813 270.271 83.7334 275.45 76.8279 275.45C67.3327 275.45 68.1959 271.997 80.2806 258.186C88.9125 248.691 99.2708 240.922 102.724 240.922C106.176 240.922 119.124 231.427 131.209 219.342L151.925 198.626L116.535 177.046C96.6813 164.961 86.323 155.466 93.2285 154.603C100.134 154.603 119.124 162.372 134.662 171.867C164.873 189.994 179.548 193.447 179.548 181.362C179.548 177.909 162.284 164.961 140.704 153.74C119.124 142.518 101.86 130.434 101.86 126.118C101.86 122.665 117.398 127.844 136.388 137.339C177.821 158.919 179.548 158.919 179.548 138.202C179.548 128.707 183.864 118.349 189.043 115.759C194.222 112.307 195.948 103.675 192.495 96.7692C189.906 89.0005 189.906 75.1894 193.359 65.6943C198.538 50.1568 199.401 49.2937 207.17 63.1047C211.486 70.8735 213.212 84.6845 209.759 93.3164Z" fill="black"/>
<path d="M196.812 150.291C196.812 163.238 200.265 171.007 205.444 167.554C210.624 164.965 214.076 157.196 214.076 150.291C214.076 143.385 210.624 135.616 205.444 133.027C200.265 129.574 196.812 137.343 196.812 150.291Z" fill="black"/>
<path d="M196.812 197.765C196.812 202.08 201.128 206.396 206.308 206.396C210.624 206.396 212.35 202.08 209.76 197.765C207.171 192.585 202.855 189.133 200.265 189.133C198.539 189.133 196.812 192.585 196.812 197.765Z" fill="black"/>
<path d="M151.058 215.887C130.341 227.972 141.562 243.509 163.142 232.288C171.774 227.109 179.543 219.34 179.543 215.024C179.543 203.802 170.911 204.666 151.058 215.887Z" fill="black"/>
<path d="M227.02 214.163C224.43 218.479 230.473 225.384 240.831 227.974C265 235.743 271.906 227.111 249.463 215.889C239.105 209.847 230.473 209.847 227.02 214.163Z" fill="black"/>
<path d="M328.011 52.7499C346.138 70.0137 368.581 100.225 378.076 120.942C387.571 141.659 395.34 153.743 395.34 146.838C395.34 124.395 352.18 61.3818 323.695 41.5284C297.799 23.4014 297.799 24.2646 328.011 52.7499Z" fill="black"/>
<path d="M438.508 36.3519C438.508 38.0783 452.319 84.6907 468.72 138.209C492.026 215.033 498.931 251.287 498.931 303.078V370.407H533.459H567.987V313.436C567.987 273.73 576.618 227.98 598.198 157.199C614.599 101.954 628.41 51.8894 628.41 45.847C628.41 38.0783 618.915 33.7624 602.514 33.7624C578.345 33.7624 575.755 37.2151 558.491 95.049C548.133 127.85 538.638 153.746 536.048 152.02C534.322 149.43 525.69 123.534 517.921 93.3226C503.247 38.9415 502.384 38.0783 470.446 35.4888C453.182 33.7624 438.508 34.6256 438.508 36.3519Z" fill="black"/>
<path d="M671.563 38.9322C671.563 45.8377 621.498 322.922 615.455 351.407C611.139 369.534 612.866 371.261 638.762 368.671C659.478 366.945 668.11 361.766 669.837 348.818C677.605 293.574 679.332 291.847 712.996 294.437C743.208 297.026 745.797 299.616 752.703 333.28C759.608 366.945 763.061 370.398 784.641 370.398C815.716 370.398 815.716 379.03 780.325 189.127L752.703 38.069L712.133 35.4794C689.69 33.753 671.563 35.4794 671.563 38.9322ZM727.67 200.349L733.713 249.551H710.407C688.827 249.551 687.1 247.824 692.279 221.066C694.869 206.391 700.048 176.18 702.638 155.463C710.407 108.851 718.175 124.388 727.67 200.349Z" fill="black"/>
<path d="M841.613 39.8047C838.16 42.3943 835.57 118.355 835.57 208.127V370.407H865.782H895.994L896.857 259.919L897.72 150.293L915.847 242.655L933.111 335.879H960.733H988.355L1005.62 238.339L1023.75 141.661L1024.61 255.603L1025.47 370.407H1055.68H1085.9V202.085V33.7624H1042.74C992.671 33.7624 988.355 39.8047 977.997 122.671C974.544 149.43 968.502 171.873 965.049 171.873C961.596 171.873 953.828 147.704 948.648 117.492C931.385 30.3096 933.974 33.7624 888.225 33.7624C865.782 33.7624 844.202 36.3519 841.613 39.8047Z" fill="black"/>
<path d="M1172.21 39.7979C1172.21 49.293 1123.01 323.788 1116.1 350.547C1111.79 368.674 1114.37 370.4 1142 370.4C1169.62 370.4 1172.21 368.674 1172.21 345.368C1172.21 302.208 1179.98 292.713 1215.37 292.713C1247.31 292.713 1248.17 293.576 1253.35 331.557C1259.39 367.811 1261.12 370.4 1285.29 370.4C1316.36 370.4 1316.36 378.169 1281.83 189.13L1254.21 38.0715L1212.78 35.4819C1190.34 33.7555 1172.21 36.3451 1172.21 39.7979ZM1229.18 196.035L1235.22 249.553H1211.05C1191.2 249.553 1188.61 246.964 1192.06 229.7C1194.65 219.342 1199.83 189.993 1203.28 164.097C1210.19 107.99 1220.55 120.075 1229.18 196.035Z" fill="black"/>
<path d="M1342.26 38.9415C1338.81 42.3943 1336.22 118.355 1336.22 208.127V370.407H1370.75H1405.27V297.036V223.664H1431.17H1457.07V297.036V370.407H1491.59H1526.12L1524.39 203.811L1521.8 38.0784H1491.59H1461.38L1458.79 100.228L1456.2 163.241H1431.17H1406.14L1403.55 100.228L1400.96 38.0784L1375.06 35.4888C1360.39 33.7624 1345.71 35.4888 1342.26 38.9415Z" fill="black"/>
<path d="M1607.27 45.8471C1604.68 52.7526 1590.01 127.85 1574.47 214.169L1545.98 370.407H1575.33C1599.5 370.407 1603.82 366.954 1603.82 350.554C1603.82 303.941 1612.45 292.72 1647.84 292.72C1679.78 292.72 1680.64 293.583 1686.68 331.563C1691.86 368.681 1693.59 370.407 1719.49 370.407H1747.97L1718.62 212.443C1703.09 126.124 1688.41 50.163 1685.82 44.1207C1680.64 29.4464 1613.31 30.3096 1607.27 45.8471ZM1659.93 177.052C1663.38 204.674 1667.69 231.433 1670.28 238.339C1673.74 246.107 1666.83 249.56 1646.98 249.56C1626.26 249.56 1620.22 246.107 1623.67 237.476C1626.26 230.57 1631.44 201.221 1634.89 172.736C1637.48 144.251 1643.52 121.808 1646.98 124.397C1650.43 126.987 1656.47 150.293 1659.93 177.052Z" fill="black"/>
<path d="M27.6245 98.5031C19.8557 110.588 14.6766 121.809 16.403 124.399C18.9925 126.125 26.7613 115.767 34.53 101.956C52.657 70.881 47.4779 68.2914 27.6245 98.5031Z" fill="black"/>
<path d="M7.77088 151.151C7.77088 160.646 10.3605 163.236 12.95 156.33C15.5396 150.288 14.6764 142.519 12.0868 139.93C9.49726 136.477 6.90769 141.656 7.77088 151.151Z" fill="black"/>
<path d="M397.93 197.768C397.93 219.348 399.656 227.979 401.382 216.758C403.109 206.4 403.109 189.136 401.382 177.914C399.656 167.556 397.93 176.188 397.93 197.768Z" fill="black"/>
<path d="M0 197.771C0 214.172 1.72638 221.077 4.31596 212.445C6.04234 204.677 6.04234 190.865 4.31596 182.234C1.72638 174.465 0 181.37 0 197.771Z" fill="black"/>
<path d="M7.77344 249.554C7.77344 256.459 11.2262 268.544 15.5422 275.45C25.9005 290.987 25.9005 277.176 15.5422 253.87C10.363 242.648 7.77344 240.922 7.77344 249.554Z" fill="black"/>
<path d="M387.583 254.734C387.583 264.229 390.173 266.819 392.763 259.913C395.352 253.871 394.489 246.102 391.899 243.513C389.31 240.06 386.72 245.239 387.583 254.734Z" fill="black"/>
<path d="M31.0817 305.659C36.2608 315.154 50.9351 332.418 64.7461 344.503L88.9155 366.083L63.0197 335.871C22.4497 288.395 21.5866 287.532 31.0817 305.659Z" fill="black"/>
<path d="M344.422 329.831C319.389 360.043 318.526 362.633 338.38 344.506C359.096 325.515 383.266 292.714 376.36 292.714C374.634 292.714 360.823 309.115 344.422 329.831Z" fill="black"/>
<path d="M105.317 373.856C114.813 381.624 126.034 387.667 131.213 387.667C141.572 387.667 137.256 383.351 110.497 371.266C89.78 361.771 89.78 361.771 105.317 373.856Z" fill="black"/>
<path d="M283.131 374.719C271.047 381.624 265.868 386.803 271.047 387.667C275.363 387.667 287.447 381.624 296.942 374.719C317.659 359.181 310.753 358.318 283.131 374.719Z" fill="black"/>
<path d="M151.93 393.706C157.109 395.432 167.468 395.432 173.51 393.706C178.689 391.116 174.373 389.39 162.289 389.39C150.204 389.39 145.888 391.116 151.93 393.706Z" fill="black"/>
<path d="M229.618 393.706C234.797 395.432 245.155 395.432 251.198 393.706C256.377 391.116 252.061 389.39 239.976 389.39C227.891 389.39 223.575 391.116 229.618 393.706Z" fill="black"/>
</svg>
