<svg width="1507" height="779" viewBox="0 0 1507 779" fill="none" xmlns="http://www.w3.org/2000/svg">
<path d="M540.965 2.89746C517.398 5.5755 487.404 10.9316 474.014 15.2165L449.912 22.715L474.014 23.7862C487.404 24.3218 502.937 26.4643 508.829 28.6067C517.398 32.356 513.649 33.9628 492.76 36.6408C444.556 43.0681 359.929 65.0281 313.331 83.2388C271.554 99.8427 269.411 101.45 286.551 103.056C315.474 105.199 341.719 110.019 338.505 112.697C337.434 114.304 317.081 119.66 294.049 125.552C224.42 142.156 92.6604 188.754 96.4096 195.181C98.0165 197.324 118.37 201.073 142.472 202.68C188.534 206.965 200.853 209.643 200.853 216.605C200.853 222.497 138.723 262.132 103.908 277.665C87.8399 285.163 57.8458 293.198 36.957 295.876L0 299.625L29.4585 314.622C71.236 334.975 112.478 341.938 153.72 334.439C196.569 326.405 200.318 324.263 321.365 243.386C377.604 205.358 441.342 165.187 463.302 153.404C569.352 96.6291 701.648 54.3159 819.482 39.8545C847.334 36.1052 869.829 31.8204 868.222 30.7491C863.402 25.9286 693.614 3.43307 640.053 0.755035C608.988 -0.851807 564.532 0.219421 540.965 2.89746Z" fill="black"/>
<path d="M923.919 27.5434C923.919 30.2215 930.347 35.5776 937.845 39.3268C946.415 43.0761 950.7 48.9678 949.629 54.8595C948.022 62.358 939.452 64.5005 899.817 67.7141C802.872 75.7483 677.004 101.457 599.876 128.774C498.646 165.195 369.028 245.536 287.616 322.128C283.867 325.878 275.297 332.305 269.405 337.125C262.978 341.41 258.693 346.231 260.3 347.838C261.907 348.909 281.724 353.194 304.22 356.407L345.462 362.299L369.564 335.519C395.273 307.131 453.655 264.818 485.791 251.428C515.25 239.645 506.68 252.499 468.116 278.208C434.908 300.168 378.669 353.729 383.49 358.55C385.097 359.621 402.772 364.442 423.661 368.726C465.974 377.832 454.19 382.117 542.03 322.664C628.799 263.747 763.772 205.901 814.12 205.901C835.544 205.901 825.903 212.329 781.983 227.326C722.53 247.679 678.075 268.568 632.013 299.633C583.272 332.305 533.46 379.974 540.959 386.937C544.173 389.615 577.916 401.934 616.48 414.789L686.645 438.356L706.998 415.324C730.029 390.151 757.881 368.726 757.881 376.225C757.881 379.439 745.562 396.042 731.1 413.718L704.32 445.854L747.168 476.384C771.271 493.523 791.624 505.842 793.231 504.771C794.302 503.164 800.194 483.882 805.55 461.922C823.761 390.151 858.04 335.519 904.638 301.775L924.991 286.778L947.486 299.097C1016.04 338.732 1110.85 338.732 1170.3 298.562C1190.12 285.171 1209.93 283.029 1239.93 291.063C1250.11 294.277 1268.85 299.097 1281.17 302.311C1293.49 305.525 1314.38 316.237 1327.77 326.413C1348.12 341.41 1354.55 344.088 1370.62 341.41C1390.97 338.197 1392.04 329.091 1372.22 329.091C1365.8 329.091 1352.41 324.271 1343.3 318.379C1311.7 299.097 1324.02 266.961 1367.4 253.57C1392.58 246.072 1426.86 255.713 1467.56 281.422C1481.49 289.992 1493.27 296.955 1493.81 295.884C1494.88 294.812 1498.09 286.243 1502.38 276.602C1508.8 259.998 1508.27 257.855 1494.88 243.93C1486.84 235.36 1477.2 218.22 1473.45 205.366L1466.49 181.799L1351.87 145.377C1288.67 125.024 1227.61 103.6 1216.36 97.7082C1187.97 83.2468 1146.2 71.999 1117.81 71.999C1101.74 71.999 1083 65.5717 1053.54 50.5746C1018.72 31.8283 1005.87 28.079 968.375 25.401C940.523 23.2586 923.919 24.3298 923.919 27.5434ZM1009.62 47.8966C1033.18 60.2156 1029.43 67.7141 1001.05 65.5717C980.694 64.5005 975.338 61.8224 971.589 51.6458C967.839 41.4693 968.911 39.8624 980.694 39.8624C988.193 39.8624 1001.05 43.6117 1009.62 47.8966ZM1138.16 102.529C1148.34 104.136 1156.91 109.492 1157.98 115.383C1161.19 127.167 1175.66 133.058 1182.62 126.095C1186.37 122.346 1183.69 118.597 1175.12 115.383C1162.8 110.563 1162.8 110.027 1174.05 110.027C1186.37 109.492 1269.92 136.808 1296.17 150.198L1312.24 158.232L1290.81 155.018C1279.03 153.412 1258.68 148.591 1245.28 144.306C1214.22 134.665 1202.97 133.594 1185.3 138.415C1174.05 141.628 1162.27 138.415 1135.49 125.56C1088.89 103.064 1089.96 92.3521 1138.16 102.529ZM938.381 196.796C977.48 277.673 1047.11 298.026 1161.19 262.676C1180.48 256.249 1186.37 256.249 1184.76 261.069C1181.01 272.852 1125.31 296.955 1087.28 302.846C995.691 317.308 933.56 277.673 920.706 196.26C915.885 167.337 923.919 167.337 938.381 196.796ZM1453.1 216.078L1454.71 233.217L1438.64 224.648C1419.36 215.007 1418.82 212.329 1431.68 202.688C1445.07 192.511 1451.49 196.26 1453.1 216.078Z" fill="black"/>
<path d="M44.4448 556.186C33.197 566.899 26.234 674.556 32.6614 730.795L37.4818 770.966H58.9062C83.0086 770.966 82.473 775.251 72.2964 707.764C65.8691 665.986 68.5472 618.317 77.6525 618.317C84.0798 618.317 104.433 662.237 111.932 692.231C116.752 711.513 121.037 717.94 130.142 719.012C139.248 720.618 142.461 716.869 147.282 697.587C162.814 639.741 178.883 610.283 188.524 620.46C193.88 625.816 190.666 713.12 184.239 737.222C181.025 749.006 179.954 761.86 181.561 766.145C184.774 774.715 224.945 776.857 230.301 768.288C231.908 765.074 233.515 720.618 233.515 668.664C233.515 592.072 231.908 572.255 224.945 561.543C208.341 536.369 181.025 547.617 152.638 591.537C142.997 605.998 133.891 618.317 131.749 618.317C130.142 618.317 124.251 609.212 118.894 597.964C102.826 565.292 92.114 554.044 71.7608 550.83C58.3706 548.688 50.3365 550.295 44.4448 556.186Z" fill="black"/>
<path d="M269.936 557.257C264.044 564.22 262.438 584.038 262.438 639.205C262.438 701.336 264.044 715.262 273.15 733.473C294.574 776.321 341.708 791.318 378.129 766.68C409.194 746.327 417.229 721.689 419.371 645.097C420.978 571.719 416.157 552.437 394.733 549.759C375.987 547.081 365.81 557.793 373.309 572.254C377.058 578.682 379.736 608.14 379.736 640.812C380.272 690.624 378.665 699.729 369.024 713.119C352.42 735.079 330.995 733.473 314.392 709.37C302.608 691.695 302.073 687.41 304.751 637.063C306.357 607.604 308.5 576.003 309.035 567.434C310.642 552.972 309.035 551.365 294.038 549.759C283.326 548.687 274.757 551.365 269.936 557.257Z" fill="black"/>
<path d="M481.504 554.045C451.51 565.829 437.048 618.318 456.866 643.492C461.686 649.919 484.718 663.845 507.749 674.022C542.563 690.09 548.991 694.91 548.991 706.158C548.991 728.118 524.353 738.83 492.752 730.261C478.826 726.511 472.399 720.084 465.436 704.016C460.08 692.232 454.188 682.591 452.045 682.591C441.333 682.591 438.12 729.725 447.761 747.936C455.259 761.326 492.752 778.465 515.783 779.001C560.774 779.001 591.839 750.614 591.839 707.765C591.839 684.734 589.697 678.842 574.164 664.381C564.523 655.275 544.17 643.492 529.173 638.136C493.823 625.817 481.504 612.427 490.074 597.43C493.287 591.002 498.108 586.182 500.786 586.182C502.928 586.182 508.82 585.11 512.569 583.504C516.854 581.897 529.173 586.717 540.421 594.216C551.669 601.714 561.31 607.606 561.845 606.535C562.381 605.464 567.201 597.965 572.022 589.931C577.378 581.897 580.056 572.791 577.914 569.578C567.737 552.438 508.284 542.797 481.504 554.045Z" fill="black"/>
<path d="M652.373 554.052C636.305 560.48 618.63 590.474 618.63 611.362C618.63 633.322 638.447 656.889 667.906 668.673C724.145 692.239 734.321 702.952 717.182 720.627C693.615 744.193 642.732 730.268 636.305 698.667C630.413 669.208 613.809 684.205 613.273 718.484C613.273 766.689 681.296 795.612 731.107 767.76C751.996 755.977 768.6 729.196 768.6 707.236C768.6 685.812 746.105 659.567 717.717 646.177C668.441 624.217 664.156 621.003 662.549 607.078C659.336 580.297 698.435 576.012 723.073 600.115C731.643 609.22 732.714 609.22 742.355 596.365C747.711 589.402 752.532 579.762 752.532 574.941C752.532 554.588 685.045 541.198 652.373 554.052Z" fill="black"/>
<path d="M807.697 551.902C791.093 555.651 785.202 565.292 781.452 593.679L777.703 618.853L805.555 601.713C837.691 581.36 845.19 585.109 839.298 617.782C837.156 628.494 835.549 667.058 835.549 704.015V770.966H859.651C882.147 770.966 883.754 769.895 882.147 757.576C881.076 750.077 878.933 715.262 877.862 679.912C873.577 591.001 882.683 571.719 914.819 596.893L928.745 608.141L937.315 591.001C945.884 574.933 945.884 573.326 935.172 563.15C925.531 553.509 916.961 551.366 871.97 550.83C843.047 550.295 814.125 550.83 807.697 551.902Z" fill="black"/>
<path d="M985.523 576.547C952.316 611.362 934.641 658.495 934.641 713.663C934.641 769.366 936.783 773.651 965.17 773.651C987.666 773.651 989.273 772.58 986.059 761.332C983.917 754.905 980.703 740.979 979.096 730.267C976.418 713.128 978.025 709.378 989.808 701.344C1009.63 688.489 1042.3 685.276 1055.15 694.917C1064.79 702.415 1065.33 705.093 1058.9 726.518C1043.9 775.794 1043.37 773.651 1066.94 773.651C1078.18 773.651 1090.5 770.973 1094.25 767.224C1102.29 759.19 1102.82 677.242 1094.79 647.783C1081.93 597.972 1046.05 548.696 1023.55 548.696C1017.66 548.696 1000.52 561.55 985.523 576.547ZM1043.37 612.433C1054.08 630.644 1055.15 649.926 1046.05 653.139C1042.3 654.211 1026.23 656.353 1011.23 658.495C985.523 661.173 982.845 660.638 982.845 651.532C982.845 641.356 1006.41 602.792 1016.59 595.829C1025.16 590.473 1033.19 595.829 1043.37 612.433Z" fill="black"/>
<path d="M1132.8 562.619C1129.59 570.653 1127.98 618.322 1128.52 674.026L1130.12 770.971L1151.01 772.578L1171.36 774.185L1168.15 756.509C1161.19 721.159 1157.97 629.035 1163.87 629.035C1178.33 629.035 1212.61 689.558 1226.53 740.441L1236.17 774.185L1258.13 772.578C1279.56 770.971 1280.09 770.435 1283.84 746.869C1291.88 692.236 1284.91 564.761 1273.13 552.978C1269.92 549.764 1260.81 549.229 1253.31 550.836C1239.92 554.049 1238.85 556.192 1242.06 574.402C1249.03 615.644 1252.24 661.171 1247.42 661.171C1244.74 661.171 1230.82 640.818 1215.82 616.715C1183.68 563.69 1169.76 548.693 1151.55 548.693C1141.91 548.693 1136.55 552.442 1132.8 562.619Z" fill="black"/>
<path d="M1371.16 553.504C1327.78 572.25 1302.07 639.201 1311.71 706.152C1320.28 763.462 1385.09 796.134 1438.11 769.354C1464.36 756.499 1470.25 740.967 1464.36 698.654C1461.68 679.907 1457.39 662.232 1454.71 659.554C1452.04 656.876 1442.4 659.019 1432.22 663.839C1408.12 676.158 1408.12 675.622 1419.36 687.941C1434.36 704.01 1426.33 724.363 1403.3 728.648C1364.2 735.611 1341.7 697.047 1354.02 643.486C1365.27 594.745 1408.65 567.965 1429.54 597.424C1441.32 614.563 1464.89 607.6 1464.89 586.711C1464.89 564.216 1448.29 552.432 1412.4 550.29C1395.8 549.754 1377.05 550.826 1371.16 553.504Z" fill="black"/>
</svg>
